<svg width="115" height="43" fill="none" xmlns="http://www.w3.org/2000/svg"><path d="M110.381 9.32l-8.023 22.737-1.781 5.047-2.728-4.605-3.3-5.572c-10.248 5.734-27.486 13.205-45.69 12.17-11.568-.657-22.71-5.43-30.98-10.093A101.998 101.998 0 017.72 22.468a64.163 64.163 0 01-3.037-2.36 25.65 25.65 0 01-.945-.823c-.199-.183-.5-.467-.714-.753-.054-.07-.473-.599-.52-1.401a2.522 2.522 0 011.76-2.556c.546-.173 1.013-.112 1.112-.1.18.021.333.057.427.081.339.087.75.246 1.1.384.756.3 1.949.807 3.36 1.388 2.886 1.19 7.035 2.839 11.916 4.39 9.843 3.127 22.331 5.744 33.32 3.67 6.576-1.24 15.172-4.212 22.228-6.929 3.505-1.35 6.59-2.62 8.797-3.552.414-.175.795-.34 1.144-.49l-3.085-6.292-2.015-4.112 4.549.53 21.194 2.462 3.111.361-1.042 2.954z" fill="#2DD4BF" stroke="#134E4A" stroke-width="5"/></svg>