<svg width="115" height="43" fill="none" xmlns="http://www.w3.org/2000/svg"><path d="M4.442 9.32l8.023 22.737 1.781 5.047 2.728-4.605 3.3-5.572c10.248 5.734 27.486 13.205 45.69 12.17 11.568-.657 22.71-5.43 30.98-10.093a101.937 101.937 0 0010.158-6.537 63.987 63.987 0 003.037-2.36c.375-.313.694-.59.945-.823a6.04 6.04 0 00.714-.753c.053-.07.473-.599.521-1.401a2.526 2.526 0 00-1.761-2.556c-.546-.173-1.013-.112-1.112-.1a3.327 3.327 0 00-.428.081 10.18 10.18 0 00-1.099.384c-.756.3-1.949.807-3.36 1.388-2.886 1.19-7.035 2.839-11.916 4.39-9.843 3.127-22.331 5.744-33.32 3.67-6.576-1.24-15.172-4.212-22.228-6.929a297.9 297.9 0 01-8.797-3.552c-.414-.175-.795-.34-1.144-.49l3.085-6.292 2.015-4.112-4.549.53L6.511 6.003 3.4 6.365 4.442 9.32z" fill="#FCA5A5" stroke="#134E4A" stroke-width="5"/></svg>