<svg width="48" height="48" fill="none" xmlns="http://www.w3.org/2000/svg"><path d="M47.282 1.291c-.905 3.584-1.792 7.168-2.715 10.759a1.73 1.73 0 01-.513.824 12048.599 12048.599 0 01-27.707 23.92.992.992 0 01-.19.114l-5.236-5.357c1.098-1.322 2.25-2.72 3.415-4.113A25169.3 25169.3 0 0134.44 3.437c.232-.31.546-.547.905-.683C38.75 1.832 42.166.962 45.58.083c.173-.017.348-.017.522 0-.278.307-.462.52-.664.722-8.08 8.204-16.16 16.411-24.238 24.622-.401.406-1.116.846-.495 1.5.622.655 1.071-.027 1.485-.445 8.004-8.117 16.002-16.237 23.996-24.358.302-.307.582-.695.869-1.042l.226.21zM18.863 19.759l-2.923 3.48a3338.75 3338.75 0 00-6.033-5.189 486.204 486.204 0 01-5.825-5.063 2.083 2.083 0 01-.654-.922C2.523 8.61 1.675 5.143.812 1.675a.488.488 0 010-.215L18.863 19.76zM20.055 18.308L2.034 0c1.602.403 3.195.8 4.784 1.208 1.868.48 3.738.947 5.59 1.476.423.125.804.369 1.098.703 3.045 3.595 6.068 7.208 9.07 10.839.164.2.302.68.188.82-.893 1.144-1.846 2.239-2.71 3.262zM31.726 36.856l-6.603-5.702 6.748-5.84 5.233 6.24-5.378 5.302zM6.2 29.642c.383.014.747.177 1.016.454 3.234 2.945 4.616 4.648 10.429 10.587.64.652.651 1.328.13 1.863-.522.535-1.252.516-1.85-.09-3.505-3.54-7.01-7.07-10.467-10.672a1.521 1.521 0 01-.302-1.47c.098-.197.247-.364.431-.482a1.19 1.19 0 01.613-.19zM31.071 42.887a1.21 1.21 0 01-.619-.21c-.184-.127-.33-.302-.424-.506a1.53 1.53 0 01.347-1.47c1.604-1.74 3.294-3.402 4.956-5.09l5.309-5.385c.718-.726 1.508-.809 2.048-.228.54.581.398 1.27-.32 2.001-3.363 3.425-6.811 6.763-10.102 10.255-.148.16-.591.658-1.195.633zM5.871 44.065a3.312 3.312 0 00-.187 1.254c-.078 1.106-1.306 2.726-2.929 2.68a2.826 2.826 0 01-1.927-.856 2.932 2.932 0 01-.827-1.969 2.882 2.882 0 01.712-1.972 2.778 2.778 0 011.846-.939c1.207-.117 1.207-.117 2.413-1.168.211.39.42.563.712.905.36.422.629.787.971 1.035a2.69 2.69 0 00-.784 1.03zM41.448 43.14l1.84-1.882c.604.953 1.545.959 2.501 1.076 1.34.166 2.296 1.537 2.205 2.92a2.917 2.917 0 01-.86 1.917 2.812 2.812 0 01-1.91.813 2.763 2.763 0 01-1.87-.663 2.863 2.863 0 01-.97-1.76c-.194-1.417-.194-1.417-.936-2.422zM8.749 37.311l1.755 1.792-2.886 2.908-1.693-1.844L8.75 37.31zM39.442 37.462l2.697 2.81c-.567.559-1.186 1.167-1.78 1.758l-2.715-2.788 1.798-1.78z" fill="#134E4A"/></svg>