<svg width="50" height="50" fill="none" xmlns="http://www.w3.org/2000/svg"><path d="M21.73 26.135c-.104.105-.19.174-.338.317a2.41 2.41 0 00-.39.454 1.137 1.137 0 00-.182.721c.03.288.174.543.387.767.21.221.455.38.738.426.288.046.538-.04.73-.151a2.27 2.27 0 00.466-.382c.063-.065.124-.131.178-.19.056-.06.105-.113.152-.16v-.001c8.322-8.439 16.637-16.88 24.947-25.323-.822 3.268-1.634 6.532-2.475 9.803-.067.24-.2.453-.38.616-9.552 8.271-19.11 16.523-28.675 24.757l-4.84-4.95c1.058-1.276 2.157-2.608 3.268-3.937C22.292 20.564 29.273 12.23 36.26 3.9l.017-.022c.182-.243.426-.428.703-.537 3.218-.87 6.444-1.696 9.674-2.527C38.344 9.25 30.037 17.69 21.73 26.135zM18.973 20.609l-2.426 2.889c-1.989-1.714-3.941-3.394-5.902-5.076a505.016 505.016 0 01-6.061-5.268l-.009-.008-.009-.007-.087-.075c-.192-.178-.34-.4-.432-.651-.811-3.098-1.578-6.204-2.35-9.317L18.973 20.61zM6.978 1.742c1.95.5 3.889.986 5.81 1.534v0c.348.103.661.305.905.582 3.167 3.74 6.313 7.498 9.436 11.276v0a.451.451 0 01.052.092 1 1 0 01.057.165c.006.024.007.045.01.062-.783.997-1.605 1.957-2.386 2.877L3.727.922c1.086.273 2.17.542 3.251.82zM37.97 32.835l-4.946 4.876-6.09-5.26 6.207-5.372 4.83 5.756zM6.457 31.378c.263.014.513.128.701.321l.022.022c2.936 2.673 4.382 4.341 8.77 8.877l2.073 2.13c.276.282.369.52.379.694.008.144-.037.303-.178.474l-.067.074c-.185.189-.377.256-.555.249-.184-.008-.415-.099-.657-.344l-.001-.001c-3.65-3.687-7.294-7.357-10.89-11.102a1.067 1.067 0 01-.218-1.002.74.74 0 01.621-.392zM43.524 31.353c.202-.022.395.041.576.235.189.203.229.38.198.559-.035.209-.182.49-.521.835-3.49 3.554-7.099 7.048-10.53 10.69l-.003.003c-.08.087-.2.219-.362.33-.161.112-.328.176-.496.17h0a.759.759 0 01-.382-.133.79.79 0 01-.254-.291 1.093 1.093 0 01.254-1.011l.003-.003c1.665-1.804 3.413-3.526 5.152-5.291l5.53-5.61c.32-.324.614-.459.835-.483zM5.084 43.551c.155.191.31.351.456.523.213.25.426.523.66.766a3.315 3.315 0 00-.543.862l-.007.015-.005.016a3.95 3.95 0 00-.225 1.445c-.033.433-.304 1.034-.781 1.528-.443.458-1.01.77-1.63.792h-.126a2.443 2.443 0 01-1.662-.74 2.55 2.55 0 01-.702-1.474L.5 47.042a2.502 2.502 0 01.617-1.71c.411-.468.981-.757 1.591-.81h.005c.6-.058 1.015-.092 1.427-.291.29-.14.57-.36.943-.68zM45.06 43.725c.773.756 1.807.775 2.575.868v.001c1.083.134 1.94 1.283 1.86 2.513v.005a2.54 2.54 0 01-.748 1.669 2.43 2.43 0 01-1.649.702h-.003a2.379 2.379 0 01-1.61-.571 2.476 2.476 0 01-.798-1.304l-.043-.222c-.096-.709-.153-1.147-.3-1.53-.115-.294-.281-.55-.515-.873l1.23-1.258zM10.24 40.73l-2.292 2.308-1.086-1.185 2.25-2.275 1.127 1.152zM43.192 41.94c-.373.367-.76.75-1.144 1.13l-2.131-2.188 1.16-1.147 2.115 2.205z" stroke="#134E4A"/></svg>