<svg width="430" height="70" fill="none" xmlns="http://www.w3.org/2000/svg"><defs><clipPath id="top"><rect x="-1400" y="0" width="2200" height="50"/></clipPath></defs><path d="M644.5 66.77h-1331V24.277l1.769-.541 61.602-18.857.885-.27.848.37 42.169 18.44 46.776-18.474.646-.255.686.114 111.903 18.769 73.413-18.726.57-.145.574.123 86.889 18.665 34.616-18.427 1.087-.578 1.121.508 40.81 18.505 80.8-18.664.456-.105.463.066 130.4 18.783 70.35-18.724.576-.154.583.123 88.35 18.65 29.954-18.335 1.245-.763 1.275.71 33.095 18.418 100.76-18.691.577-.108.564.161 65.553 18.665 68.632-18.672.77-.21.749.275L569.6 32.328l71.505-27.393 3.395-1.3V66.77z" fill="#fff"/><path d="M644.5 66.77h-1331V24.277l1.769-.541 61.602-18.857.885-.27.848.37 42.169 18.44 46.776-18.474.646-.255.686.114 111.903 18.769 73.413-18.726.57-.145.574.123 86.889 18.665 34.616-18.427 1.087-.578 1.121.508 40.81 18.505 80.8-18.664.456-.105.463.066 130.4 18.783 70.35-18.724.576-.154.583.123 88.35 18.65 29.954-18.335 1.245-.763 1.275.71 33.095 18.418 100.76-18.691.577-.108.564.161 65.553 18.665 68.632-18.672.77-.21.749.275L569.6 32.328l71.505-27.393 3.395-1.3V66.77z" fill="none" stroke="#FCA5A5" stroke-width="5" clip-path="url(#top)"/></svg>