<svg width="135" height="135" fill="none" xmlns="http://www.w3.org/2000/svg"><path opacity=".15" d="M67.5 101.25c24.853 0 45-20.147 45-45s-20.147-45-45-45-45 20.147-45 45 20.147 45 45 45z" fill="#2DD4BF"/><path d="M67.5 92.25c17.397 0 31.5-16.118 31.5-36s-14.103-36-31.5-36S36 36.368 36 56.25s14.103 36 31.5 36z" fill="#FAFAFA" stroke="#134E4A" stroke-width="6"/><path d="M54 56.25c9 9 18 9 27 0" stroke="#FCA5A5" stroke-width="5" stroke-linecap="round"/><path d="M76.5 90h-18a4.5 4.5 0 00-4.5 4.5v2.25a4.5 4.5 0 004.5 4.5h18a4.5 4.5 0 004.5-4.5V94.5a4.5 4.5 0 00-4.5-4.5z" fill="#FCA5A5" stroke="#134E4A" stroke-width="6"/><path d="M78.75 101.25h-22.5a4.5 4.5 0 00-4.5 4.5V108a4.5 4.5 0 004.5 4.5h22.5a4.5 4.5 0 004.5-4.5v-2.25a4.5 4.5 0 00-4.5-4.5z" fill="#FAFAFA" stroke="#134E4A" stroke-width="6"/><path d="M67.5 5.625V20.25M22.5 39.375L36 45M112.5 39.375L99 45M39.375 13.5l7.875 11.25M95.625 13.5L87.75 24.75" stroke="#134E4A" stroke-width="5" stroke-linecap="round"/></svg>