<svg width="238" height="48" fill="none" xmlns="http://www.w3.org/2000/svg"><path d="M28.104 45.545h-.16l-10.072.428c-3.936 0-6.866-.481-8.79-1.444-1.922-.962-3.614-2.522-5.075-4.678A22.269 22.269 0 01.908 32.74 34.462 34.462 0 010 24.8c0-6.274 1.425-11.31 4.274-15.106C7.142 5.898 10.891 4 15.521 4c2.155 0 4.417.49 6.786 1.47a22.518 22.518 0 016.518 4.037l-5.957 12.271c-2.351-1.746-4.56-2.62-6.625-2.62-1.407 0-2.547.508-3.42 1.524-.855 1.016-1.282 2.353-1.282 4.01 0 3.494 1.344 5.24 4.034 5.24h.293v-6.39h12.236v22.003zM54.55 31.483H43.064c.392 1.658 1.069 2.95 2.03 3.876.98.91 2.084 1.364 3.313 1.364 2.529 0 4.577-1.167 6.144-3.502v5.64c-2.582 4.706-6.144 7.059-10.686 7.059-3.864 0-6.927-1.56-9.19-4.68-2.261-3.136-3.392-7.413-3.392-12.832 0-2.994.56-5.792 1.683-8.394 1.122-2.62 2.538-4.51 4.247-5.668 1.71-1.176 3.66-1.764 5.85-1.764 1.337 0 2.663.347 3.981 1.042 1.318.678 2.53 1.711 3.634 3.102 1.122 1.372 1.994 3.083 2.618 5.133.623 2.05.98 3.725 1.068 5.026.107 1.3.17 2.833.187 4.598zm-12.155-5.64h5.263c-.053-1.57-.33-2.808-.828-3.717-.5-.927-1.105-1.39-1.817-1.39-.748 0-1.371.445-1.87 1.337-.499.89-.748 2.031-.748 3.421v.348zm16.216 7.485c.748 1.497 1.674 2.69 2.778 3.582 1.122.873 2.19 1.31 3.206 1.31 1.46 0 2.19-.784 2.19-2.352 0-.624-.16-1.168-.48-1.631-.321-.482-.802-.856-1.443-1.123l-2.511-1.15c-1.763-.784-3.117-2.005-4.06-3.662-.945-1.658-1.416-3.645-1.416-5.962 0-3.084.97-5.472 2.911-7.165 1.941-1.693 4.675-2.54 8.202-2.54 3.437 0 6.554.918 9.35 2.754l-2.698 8.207c-1.763-2.334-3.456-3.502-5.076-3.502-.57 0-1.033.178-1.39.535-.355.338-.534.793-.534 1.363 0 .82.25 1.47.748 1.952.499.481 1.416.962 2.752 1.444 2.867 1.015 4.71 2.423 5.53 4.224a13.466 13.466 0 011.255 5.747c0 3.227-.908 5.793-2.724 7.7-1.817 1.907-4.257 2.86-7.32 2.86-1.692 0-3.616-.311-5.77-.935a27.072 27.072 0 01-6.011-2.62l2.51-9.036zm35.13-19.97h4.755v8.982h-4.755v4.304c0 2.192.106 3.76.32 4.705.214.927.82 1.39 1.817 1.39 1.015 0 1.888-.766 2.618-2.299v12.753c-1.746 1.675-3.99 2.513-6.732 2.513-1.283 0-2.538-.357-3.767-1.07-1.229-.713-2.315-1.755-3.26-3.128-.925-1.39-1.54-2.87-1.842-4.438-.286-1.568-.428-4.402-.428-8.501v-6.23H77.98L93.742 4.108v9.25zm79.168.106h11.273v3.983c1.835-2.833 4.079-4.25 6.732-4.25 1.478 0 2.788.374 3.927 1.123 1.158.748 2.031 1.79 2.618 3.127.588 1.337.971 2.78 1.149 4.331.196 1.533.294 4.144.294 7.834v15.987h-10.632V30.708c0-3.511-.116-5.704-.347-6.577-.232-.873-.829-1.31-1.791-1.31-.605 0-1.255.365-1.95 1.096V45.6H172.91V13.464zm30.561 19.97c.748 1.498 1.674 2.692 2.779 3.583 1.122.873 2.19 1.31 3.205 1.31 1.461 0 2.191-.784 2.191-2.353 0-.623-.16-1.167-.481-1.63-.321-.482-.801-.856-1.443-1.123l-2.511-1.15c-1.763-.784-3.117-2.005-4.06-3.662-.944-1.658-1.416-3.645-1.416-5.962 0-3.084.97-5.472 2.912-7.165 1.941-1.693 4.675-2.54 8.201-2.54 3.437 0 6.554.918 9.35 2.754l-2.698 8.207c-1.763-2.334-3.455-3.502-5.076-3.502-.57 0-1.033.178-1.389.535-.356.338-.534.793-.534 1.363 0 .82.249 1.47.748 1.952.498.481 1.416.962 2.751 1.444 2.868 1.015 4.711 2.423 5.53 4.223a13.469 13.469 0 011.256 5.748c0 3.226-.909 5.793-2.725 7.7-1.817 1.907-4.256 2.86-7.32 2.86-1.692 0-3.615-.312-5.77-.935a27.073 27.073 0 01-6.011-2.62l2.511-9.036zm26.261.455c-.25-.285-1.087-2.549-2.511-6.79-1.425-4.242-2.138-8.261-2.138-12.058 0-3.172.597-5.783 1.79-7.833 1.193-2.067 2.68-3.101 4.462-3.101 1.656 0 3.054 1.034 4.194 3.101 1.14 2.05 1.71 4.643 1.71 7.78 0 3.529-.624 7.263-1.87 11.202-1.247 3.92-2.191 6.487-2.832 7.7.926.48 1.647 1.264 2.164 2.352.516 1.087.774 2.308.774 3.662 0 1.765-.427 3.262-1.282 4.492-.837 1.212-1.843 1.818-3.019 1.818-1.193 0-2.217-.606-3.072-1.818-.837-1.23-1.256-2.727-1.256-4.492 0-2.887.962-4.892 2.886-6.015zM136.298 45.748c-4.126-.116-7.492-.656-10.712-2.077-2.967-1.312-5.377-3.365-6.877-6.56-.862-1.836-1.218-3.807-1.154-5.88.132-4.064 1.834-7.273 4.468-9.93 3.022-3.048 6.642-4.721 10.655-5.375a22.282 22.282 0 016.316-.101c4.018.494 7.663 2.037 10.801 4.903 2.323 2.118 4.034 4.714 4.727 8 1.007 4.777-.208 9.305-3.85 12.508-2.432 2.142-5.242 3.293-8.273 3.901a33.24 33.24 0 01-6.101.611zm-.608-11.302c3.118.006 5.647-.408 8.088-1.385.282-.112.545-.275.778-.482.261-.236.294-.575.115-.905-.165-.307-.426-.266-.693-.207-1.648.365-3.284.765-4.939 1.062a15.993 15.993 0 01-5.289.042c-1.766-.273-3.51-.722-5.26-1.11-.283-.062-.49 0-.646.252-.155.252-.187.556.015.795.141.163.312.29.5.373 2.525 1.104 5.16 1.527 7.331 1.565zm9.147-7.305c.083.25.189.771.412 1.222.46.931 1.308 1.298 2.236 1.05.709-.192 1.107-.809 1.133-1.884.024-1.013-.234-1.94-1.01-2.556-.556-.444-1.202-.432-1.794-.091-.705.401-.926 1.143-.978 2.255l.001.004zm-19.289 2.37a1.71 1.71 0 00.304-.037c.906-.224 1.393-.917 1.613-1.86.225-.969.024-1.847-.639-2.536-.557-.578-1.459-.548-2.076 0-.896.8-1.191 2.155-.741 3.369.271.721.733 1.064 1.539 1.064zM117.127 25.177l-.077.176a4.514 4.514 0 01-.082.188l-.077.182c-.074.183-.149.366-.223.553a.128.128 0 00-.018.07c-.344.794-.532 1.643-.715 2.497-.164.766-.154.805-.842.864-1.57.133-3.131.072-4.681-.293-.709-.167-1.38-.456-2.073-.681l-.165-.119c.094-.365.438-.464.642-.717.337-.419.355-.603-.011-.99-.284-.299-.642-.456-.996-.626-.696-.325-1.4-.66-1.986-1.181-.568-.502-1.193-.96-1.55-1.706-.303-.629-.176-.895.459-.932.191-.011.383.026.577.03.286.004.539-.067.702-.366.162-.3.082-.56-.074-.807-.374-.596-.788-1.155-1.14-1.774a6.991 6.991 0 01-.895-4.163c.2-.038.232.156.298.261 1.154 1.826 2.687 3.196 4.34 4.41 2.69 1.982 5.636 3.36 8.69 4.48.06.029.118.064.173.105a.48.48 0 01-.026.083.361.361 0 00-.099.12.41.41 0 00-.045.154l-.106.182zM160.163 22.453l.248-.123.082-.058.165-.091.165-.092.247-.122.092-.069.153-.076.165-.092.323-.182.275-.183.222-.115.098-.071a.607.607 0 00.309-.183l.083-.091.082-.02.1-.066c2.206-1.368 4.115-3.253 5.597-5.522.164.748.108 1.428-.028 2.086a7.358 7.358 0 01-1.325 2.971c-.259.327-.49.68-.689 1.056-.298.602-.082 1.03.519 1.054.315.01.629.033.944.042.454.014.563.182.354.65a4.483 4.483 0 01-.997 1.377c-.792.774-1.713 1.302-2.682 1.743a4.145 4.145 0 00-.762.44c-.546.404-.56.747-.073 1.227.122.12.254.23.382.344.019.052.05.097.09.13a.275.275 0 00.138.063.722.722 0 010 .066c-.645.32-1.315.575-2.002.758-1.863.517-3.753.53-5.653.347-.06-.336-.105-.677-.186-1.004-.197-.805-.316-1.643-.719-2.374a.534.534 0 00-.028-.254.479.479 0 00-.142-.202.926.926 0 00-.016-.092.157.157 0 00-.005-.08l-.052-.1-.09-.092h.004a.153.153 0 00-.005-.111.118.118 0 00-.032-.045.12.12 0 00-.045-.027.436.436 0 00-.036-.208.38.38 0 00-.129-.157v.006a.206.206 0 00-.019-.107.174.174 0 00-.071-.076v-.109a16.32 16.32 0 001.895-.715l.248-.099c.271-.072.532-.19.772-.347a.058.058 0 00.052-.016c.041-.01.083-.013.083-.079v.011h.082l.247-.116a.624.624 0 00.33-.162l.165-.075.192-.109a.054.054 0 00.027-.001.058.058 0 00.024-.015c.239-.07.464-.19.664-.353l.168-.09zM119.537 19.06l.1.283.062.091-.005-.006c.03.062.058.124.087.182.025.117.083.22.165.298.002.025.01.049.024.069l.142.187v-.005c.009.053.025.098.082.091v.27a7.443 7.443 0 00-.904 1.012.867.867 0 00-.264.355l-.067.092-.136.183-.275.467-.107.172c-.119.244-.296.153-.46.092a12.178 12.178 0 01-3.738-2.329 9.08 9.08 0 01-1.801-2.169 5.604 5.604 0 01-.521-1.278c-.156-.526.052-.811.552-.78.389.024.764 0 1.112-.23.392-.257.514-.61.334-1.074a3.477 3.477 0 00-.601-.972c-.486-.577-.866-1.241-1.265-1.888-.267-.432-.226-.515.227-.7 1.154-.468 1.433-1.209.918-2.453-.143-.344-.318-.67-.46-1.016-.131-.316-.247-.639-.348-.97-.053-.171-.097-.402.007-.525.13-.156.305.018.444.084 1.253.609 2.266 1.576 3.202 2.656.094.11.19.217.285.326l.076.091.069.091.091.12c.012.051.032.1.06.14a.374.374 0 00.105.104l.082.097v-.004l.083.091h-.005a.21.21 0 00.021.105.191.191 0 00.068.078l.101.182.064.086.265.462.063.091c.068.164.097.354.248.457h-.004c.054.122.111.243.168.365l.26.64c.508 1.377.671 2.844.916 4.29.119.676.182 1.374.478 1.999zM154.545 12.223l.016-.092a.378.378 0 00.11-.117.427.427 0 00.055-.157.683.683 0 00.165-.333l.165-.303a.472.472 0 00.164-.274l.165-.274.184-.274c.792-1.117 1.664-2.153 2.74-2.934a11.43 11.43 0 011.874-1.146c.033.561-.11 1.021-.294 1.47-.222.54-.47 1.066-.669 1.615-.377 1.046.006 1.858 1.009 2.068.412.091.401.274.253.584-.364.756-.869 1.401-1.351 2.064-.146.2-.28.413-.401.634-.432.797-.103 1.498.742 1.566.274.019.549.019.824 0 .212-.01.315.077.286.316-.03.238-.023.468-.103.669-.439 1.11-1 2.119-1.942 2.812-.223.164-.375.445-.592.621-.488.393-1.051.666-1.539 1.044-.557.433-1.165.716-1.764 1.039-.253.136-.418.106-.577-.183-.159-.288-.313-.608-.558-.84l-.182-.255c-.201-.322-.47-.571-.722-.84l-.102-.091.006.005-.088-.096h.005v-.265a.506.506 0 00.17-.279l.083-.153c.171-.254.323-.518.329-.85.232-.285.256-.657.313-1.005.281-1.716.373-3.477.989-5.113a.12.12 0 00.018-.07.729.729 0 00.146-.386.399.399 0 00.015-.084l.058-.093zM155.787 37.687l.104-.266c.257-.556.412-1.153.552-1.752.218-.934.359-1.888.419-2.85.014-.194.054-.332.26-.274.586.164 1.187.15 1.78.224 2.349.288 4.698.464 7.052.057.906-.156 1.804-.342 2.637-.79.02.001.04-.005.056-.019.29-.114.597-.188.824-.447l.082-.02.083-.07c.059-.012.128 0 .164-.074l.165-.055c-.22.931-.808 1.597-1.441 2.157-.561.495-1.149.994-1.813 1.334-.372.19-.765.328-1.144.504-.441.205-.465.358-.094.675.445.381.912.73 1.362 1.104.158.132.412.243.363.496-.049.235-.316.282-.51.326-1.021.233-2.044.162-3.065-.026a5.835 5.835 0 00-.894-.132c-.477-.011-.625.274-.374.721.276.488.59.948.879 1.427.113.189.28.45.164.615-.103.149-.375.046-.576.01-1.484-.248-2.777-.98-4.026-1.85-.165-.113-.359-.31-.559-.162-.171.127-.211.376-.211.614 0 .478.173.919.272 1.37.057.264-.006.3-.208.234a6.55 6.55 0 01-1.835-.958c-.316-.227-.637-.445-.955-.668l-.039-.084.055-.274v-.091h-.007c.089-.023.114-.104.14-.183a.16.16 0 00.021-.075l.064-.105.109-.274.144-.37zM116.739 37.804c0 .024.006.048.018.068.045.252.152.485.309.673l.067.152.105.182c.018.123.131.22.083.366a.327.327 0 00-.146.059.377.377 0 00-.107.123v-.004a.408.408 0 00-.247.188l-.259.182a.157.157 0 00-.07.029l-.52.333-.222.099c-.43.168-.865.327-1.291.51-.29.121-.248-.05-.197-.244a.09.09 0 00.015-.062c.194-.382.257-.81.319-1.232.061-.405-.193-.73-.466-.594-.632.31-1.268.62-1.843 1.056a.187.187 0 00-.115.013.214.214 0 00-.091.079c-.582.163-1.115.495-1.71.617l-1.007.204c-.271.054-.297-.058-.206-.32.212-.607.594-1.09.942-1.593a1.11 1.11 0 00.192-.39c.075-.33-.012-.553-.362-.514-.53.06-1.062.117-1.587.21a6.025 6.025 0 01-2.646-.124c-.354-.092-.372-.222-.124-.535.395-.502.97-.731 1.408-1.17.138-.136.381-.206.352-.456-.033-.29-.292-.328-.494-.4-1.193-.422-2.265-1.068-3.164-2.049a6.252 6.252 0 01-1.12-1.729c-.044-.1-.105-.2.065-.22l.112.091c.095.173.253.222.412.258.015.013.034.02.053.018.158.124.336.212.525.258a.064.064 0 00.053.016c.807.47 1.705.639 2.572.87.773.2 1.599.17 2.403.2 2.233.085 4.456-.007 6.651-.522.177-.041.283-.022.281.23-.003.816.078 1.629.243 2.423.186.912.41 1.814.814 2.65z" fill="#134E4A"/></svg>