<svg width="50" height="50" fill="none" xmlns="http://www.w3.org/2000/svg"><path d="M48.509 11.589a18.912 18.912 0 00-4.067-6.031A18.912 18.912 0 0031.024 0a18.912 18.912 0 00-13.418 5.558 18.91 18.91 0 00-5.558 13.417 18.885 18.885 0 003.61 11.137L13.97 31.8a1.34 1.34 0 00-1.521.261L1.135 43.375a3.885 3.885 0 000 5.488A3.856 3.856 0 003.879 50a3.856 3.856 0 002.745-1.137L17.938 37.55a1.34 1.34 0 00.26-1.521l1.689-1.689a18.88 18.88 0 0011.137 3.61 18.911 18.911 0 0013.418-5.558A18.913 18.913 0 0050 18.975c0-2.561-.502-5.046-1.491-7.386zM17.19 36.804L5.878 48.117a2.807 2.807 0 01-1.999.828 2.807 2.807 0 01-1.998-.828 2.829 2.829 0 010-3.996l11.314-11.314a.28.28 0 01.399 0l.057.058 3.482 3.482h.001l.057.058c.11.11.11.289 0 .399zm.316-1.576l-2.736-2.736 1.537-1.537a19.223 19.223 0 002.736 2.736l-1.537 1.537zm26.189-3.582a17.804 17.804 0 01-12.672 5.249 17.785 17.785 0 01-10.898-3.692 18.193 18.193 0 01-3.37-3.383 17.783 17.783 0 01-3.652-10.845c0-4.787 1.864-9.287 5.248-12.671a17.803 17.803 0 0112.672-5.249c4.787 0 9.287 1.864 12.672 5.249a17.802 17.802 0 015.249 12.671c0 4.787-1.864 9.287-5.249 12.671z" fill="#134E4A"/><path d="M42.326 7.674a15.88 15.88 0 00-11.302-4.682 15.88 15.88 0 00-11.302 4.682 15.878 15.878 0 00-4.681 11.301c0 4.27 1.663 8.283 4.681 11.302a15.88 15.88 0 0011.302 4.68 15.88 15.88 0 0011.302-4.68 15.878 15.878 0 004.681-11.302c0-4.269-1.662-8.283-4.68-11.301zM41.58 29.53a14.83 14.83 0 01-10.556 4.373 14.83 14.83 0 01-10.556-4.373 14.83 14.83 0 01-4.372-10.555A14.83 14.83 0 0120.468 8.42a14.83 14.83 0 0110.556-4.372A14.83 14.83 0 0141.58 8.42a14.83 14.83 0 014.372 10.555c0 3.987-1.552 7.736-4.372 10.555z" fill="#134E4A"/><path d="M31.844 5.79a13.217 13.217 0 00-14.025 12.774 1.424 1.424 0 001.13 1.454 1.43 1.43 0 001.645-.852 12.666 12.666 0 012.946-4.285c2.33-2.215 5.202-3.434 8.09-3.434h.042a2.803 2.803 0 002.82-2.702l.001-.035a2.803 2.803 0 00-.73-2 2.82 2.82 0 00-1.92-.92zm1.595 2.881l-.002.035a1.752 1.752 0 01-1.766 1.686h-.04c-3.16 0-6.29 1.322-8.818 3.725a13.716 13.716 0 00-3.19 4.638c-.119.28-.373.249-.448.232-.073-.016-.312-.092-.302-.39A12.16 12.16 0 0131.777 6.842a1.761 1.761 0 011.662 1.83z" fill="#134E4A"/></svg>