<svg width="50" height="50" fill="none" xmlns="http://www.w3.org/2000/svg"><path d="M0 24.39C0 12.893 0 7.144 3.572 3.572 7.144 0 12.892 0 24.39 0h1.22c11.497 0 17.246 0 20.818 3.572C50 7.144 50 12.892 50 24.39v1.22c0 11.497 0 17.246-3.572 20.818C42.856 50 37.108 50 25.61 50h-1.22c-11.497 0-17.246 0-20.818-3.572C0 42.856 0 37.108 0 25.61v-1.22z" fill="#E5F4F2"/><path opacity=".2" d="M19.168 34.033a.802.802 0 01-1.14 0l-2.061-2.06a.8.8 0 010-1.141L26.6 20.198l3.2 3.201-10.633 10.634z" fill="#2DD4BF"/><path d="M33.803 25v4.802M31.402 27.4h4.802M20.598 16.197v4.001M18.598 18.197h4.001M29.002 30.602v3.201M27.401 32.203h3.201M30.845 15.96L15.969 30.836a.8.8 0 000 1.132l2.069 2.069a.8.8 0 001.132 0L34.046 19.16a.8.8 0 000-1.131l-2.07-2.07a.8.8 0 00-1.131 0zM26.6 20.198l3.202 3.201" stroke="#2DD4BF" stroke-width="1.448" stroke-linecap="round" stroke-linejoin="round"/></svg>