<svg width="104" height="93" fill="none" xmlns="http://www.w3.org/2000/svg"><path d="M74.293 79.645c.086-.433.33-1.046.302-1.642-.174-3.741-2.234-5.916-5.019-7.325l-2.683-1.808c.05-.747.093-1.494.167-2.238.095-.968.298-1.105 1.04-.615 2.028 1.333 4.042 2.682 6.015 4.096 1.397 1.004 2.33 2.411 2.59 4.298.074.607.198 1.205.37 1.787.504 1.585.31 2.998-.477 4.463-.945 1.736-1.674 3.613-2.491 5.43l.18.204c1.304-1.065 2.616-2.114 3.906-3.2.596-.505.725-.477.984.312.385 1.17.744 2.356 1.21 3.487.044.109.09.216.138.324l-3.131.429c-.596.457-1.193.962-1.83 1.383-.603.418-1.24.772-1.902 1.058-.335.15-.705.178-1.056.08a1.692 1.692 0 01-.895-.628c-.27-.346-.602-1.175-.581-1.981.017-.666.472-1.637.472-1.637a.64.64 0 00.15-.201c.384-.998.743-2.006 1.106-3.007l1.435-3.069z" fill="#134E4A"/><path d="M87.9 80.151l3.067 3.166c.202.5.467.957.574 1.454.32 1.487-.608 2.629-2.147 2.748a7.66 7.66 0 01-3.437-.555c-.333-.132-.676-.226-1.048-.348l-2.765.38c.006-1.266.003-2.531.003-3.797 0-.757.14-.87.763-.576.652.31 1.287.678 1.956.94 1.12.437 2.266.811 3.392 1.213.03-.066.058-.132.087-.2-.102-.123-.2-.25-.304-.37-1.946-2.234-3.897-4.462-5.832-6.706-.223-.264-.464-.582-.525-.915-.209-1.136-.344-2.287-.501-3.436-.288-2.102-.79-4.112-2.009-5.814-2.266-3.17-5.085-5.589-8.328-7.412-.171-.097-.477-.01-.68.091-.775.382-1.513.861-2.3 1.204-3.794 1.647-7.769 2.386-11.807 2.621-4.862.284-9.716.091-14.499-1.042-3.057-.724-6.115-1.56-8.798-3.392-1.253-.855-2.35-.88-3.652-.43-3.152 1.092-5.816 2.873-7.465 6.176-1.23 2.46-1.493 5.187-1.76 7.909-.11 1.108-.013 2.227-.766 3.217-1.192 1.578-2.254 3.285-3.37 4.938-.215.317-.428.633-.637.954-.209.32-.385.61-.643 1.019 2.136-.726 3.904-1.912 5.725-3.256.203 2.705.398 5.317.596 7.928l.254.034 2.766-7.317 4.122 3.7.119-.117a3.456 3.456 0 00-.12-.354c-.953-2.188-1.916-4.37-2.846-6.568a2.47 2.47 0 01-.189-1.158c.12-1.15.358-2.288.478-3.435.255-2.457 1.234-4.317 3.28-5.492 2.224-1.275 4.616-1.62 7.048-1.822.537-.045.755.283.633.96-.145.81-.228 1.62-.256 2.43l-3.188.149a5.137 5.137 0 00-2.702 1.362c-1.43 1.403-1.957 3.282-2.323 5.273-.181.986.04 1.816.369 2.714a106.13 106.13 0 012.074 6.257c.121.402.134.835.037 1.245-.097.41-.3.78-.585 1.064-.589.608-1.366.661-2.064.324-.934-.452-1.81-1.057-2.76-1.616-.202.546-.413 1.148-.645 1.742-.495 1.27-.985 2.543-1.908 3.53-1.288 1.372-2.761 1.15-3.63-.581-.632-1.257-.774-2.656-.888-4.056-.024-.304 0-.615 0-.925-.98.354-1.924.728-2.885 1.03-.847.264-1.708.358-2.564-.034-.909-.415-1.306-1.28-1.028-2.334.427-1.616 1.357-2.914 2.229-4.238 1.037-1.586 2.146-3.1 3.198-4.671.158-.236.206-.61.204-.917-.013-3.568.534-6.985 2.06-10.161 1.84-3.832 4.697-6.328 8.339-7.796.092-.037.186-.069.277-.11.056-.024.106-.06.174-.098-.477-.588-.942-1.189-1.452-1.735-.102-.11-.43-.084-.589.01-.904.544-1.757 1.206-2.69 1.672-.845.413-1.73.718-2.637.912-1.193.264-2.2-.132-2.767-1.43-1.117.323-2.208.694-3.32.936a4.629 4.629 0 01-1.834.026c-1.72-.333-2.443-1.366-2.623-3.628-.835-.091-1.67-.148-2.505-.284-1.106-.18-2.165-.529-3.041-1.356-1.379-1.3-1.461-2.775-.246-4.277.12-.147.239-.288.383-.46-.558-.573-1.119-1.118-1.646-1.699C1.535 43.049.432 41.347.06 39.198a4.791 4.791 0 01.032-1.69c.283-1.44 1.443-2.191 2.712-1.71.928.353 1.813.853 2.701 1.321a8.366 8.366 0 003.35 1.024c.166.012.337-.016.578-.028-1.79-1.512-2.013-2.004-1.708-3.63a15.953 15.953 0 01-4.316-4.45c-.765-1.182-1.431-2.428-1.518-3.936-.077-1.256.388-2.161 1.419-2.706.14-.074.268-.174.424-.277-.293-.698-.61-1.353-.851-2.04a13.703 13.703 0 01-.649-6.77c.18-1.132.675-2.06 1.744-2.346 1.145-.307 2.095.121 2.807 1.189.729 1.095 1.431 2.22 2.243 3.239 1.415 1.798 3.157 3.244 5.112 4.244-.218-.793-.461-1.52-.604-2.268a3.91 3.91 0 01-.009-1.423c.198-1.057.682-1.474 1.648-1.563.21-.02.419-.03.7-.048-.478-.66-.923-1.239-1.323-1.85-.63-.97-1.107-2.021-1.107-3.263-.006-1.442.554-2.305 1.789-2.753.108-.04.22-.068.277-.085-.319-1.081-.707-2.115-.914-3.191a6.104 6.104 0 010-2.28c.279-1.416 1.71-2.183 3.122-1.797 1.774.487 3.254 1.573 4.651 2.82 3.284 2.935 5.809 6.475 6.979 11.035.415 1.613.596 3.303.923 4.943.195 1.001.587 1.55 1.346 2.098 1.366-.91 2.68-1.888 4.075-2.697 3.632-2.105 7.577-3.467 11.645-4.02 8.777-1.22 16.874.803 24.26 6.22.866.634 1.074.686 1.525-.355.401-.97.658-2.006.76-3.067.448-4.193 1.988-7.815 4.494-10.953 1.55-1.936 3.245-3.7 5.3-4.95A9.126 9.126 0 0186.496.051c1.871-.397 2.94 1.556 2.754 3.303a12.265 12.265 0 01-.437 2.039c-.188.66-.453 1.3-.695 1.982 1.073.196 1.93.769 2.16 1.995.12.61.034 1.314-.118 1.928-.384 1.595-1.292 2.844-2.436 4.025.239.018.403.043.564.042 1.863-.008 2.278 1.809 2.02 3.171-.14.736-.404 1.445-.624 2.213 1.966-.993 3.587-2.448 5.016-4.159.779-.925 1.437-1.982 2.161-2.973.244-.347.511-.673.8-.976 1.459-1.484 3.451-.836 3.911 1.302.596 2.784.148 5.44-.909 8.002-.164.397-.342.793-.513 1.19-.008.018 0 .043 0 .088.835.38 1.65.872 1.802 1.962.095.668.09 1.426-.104 2.055-.782 2.534-2.36 4.434-4.193 6.102-.147.15-.306.282-.477.396-.656.389-1.083.822-.867 1.8.153.69-.338 1.227-.805 1.662-.324.303-.677.566-1.06.882 1.388.18 2.624-.213 3.816-.818.647-.328 1.266-.726 1.909-1.065a4.56 4.56 0 011.104-.467c1.837-.403 3.077 1.19 2.637 3.395-.515 2.581-1.943 4.523-3.645 6.26-.276.283-.565.551-.879.854.246.32.488.604.694.917.947 1.43.671 2.907-.763 4.011-1.175.908-2.528 1.208-3.922 1.322-.453.037-.908 0-1.404 0-.011.37-.041.738-.09 1.104-.314 1.705-1.43 2.643-3.118 2.733-1.55.076-2.938-.57-4.334-1.17-.79 1.447-1.804 1.862-3.365 1.508-1.74-.396-3.264-1.29-4.74-2.325-.198-.133-.4-.277-.558-.384l-3.941 3.774a28.864 28.864 0 015.327 4.593c1.702 1.899 3.133 3.653 4.076 6.496.594 1.792.815 4.764.815 4.764.036.294.085.595.109.899.082 1.074.484 1.941 1.192 2.697.89.94 2.535 2.97 2.535 2.97zM52.096 60.405a48.093 48.093 0 008.825-.884c4.388-.88 8.455-2.546 11.984-5.647 5.27-4.633 7.03-11.185 5.572-18.102-1.003-4.757-3.48-8.511-6.841-11.577-4.546-4.147-9.818-6.38-15.633-7.095a32.248 32.248 0 00-9.14.146c-5.809.946-11.048 3.367-15.421 7.779-3.817 3.845-6.276 8.488-6.467 14.37-.098 2.999.418 5.852 1.67 8.509 2.17 4.625 5.654 7.594 9.952 9.492 4.655 2.06 9.526 2.841 15.499 3.01z" fill="#134E4A"/><path d="M52.096 60.405c-5.971-.168-10.843-.95-15.504-3.006-4.294-1.899-7.782-4.87-9.953-9.492-1.247-2.658-1.762-5.51-1.67-8.51.191-5.881 2.654-10.524 6.467-14.37 4.373-4.411 9.613-6.832 15.42-7.778 3.03-.483 6.101-.532 9.141-.147 5.816.715 11.092 2.948 15.633 7.096 3.361 3.065 5.838 6.822 6.841 11.576 1.458 6.914-.302 13.467-5.572 18.102-3.52 3.099-7.586 4.765-11.974 5.645a48.107 48.107 0 01-8.829.884zm-.88-16.355c4.512.007 8.172-.591 11.706-2.005a3.825 3.825 0 001.126-.698c.377-.34.425-.832.165-1.31-.238-.443-.616-.384-1.003-.299-2.385.529-4.752 1.107-7.147 1.538a23.157 23.157 0 01-7.656.06c-2.554-.396-5.08-1.044-7.612-1.606-.41-.09-.709 0-.934.365-.226.364-.272.804.021 1.15.204.236.451.42.724.54 3.653 1.597 7.467 2.209 10.61 2.265zm13.238-10.571c.12.36.273 1.115.597 1.768.665 1.347 1.892 1.879 3.235 1.518 1.026-.276 1.603-1.17 1.64-2.725.035-1.466-.339-2.807-1.461-3.7-.805-.642-1.74-.624-2.598-.131-1.02.58-1.339 1.654-1.414 3.263l.001.007zm-27.917 3.429c.148-.005.295-.022.44-.053 1.312-.325 2.017-1.328 2.334-2.692.327-1.402.036-2.673-.924-3.67-.806-.837-2.112-.793-3.005 0-1.296 1.158-1.724 3.118-1.073 4.875.394 1.044 1.062 1.54 2.228 1.54z" fill="#FAFAFA"/><path d="M51.216 44.05c-3.143-.056-6.957-.67-10.615-2.265a2.064 2.064 0 01-.724-.54c-.293-.345-.259-.77-.021-1.15.237-.38.525-.455.934-.365 2.533.562 5.058 1.21 7.612 1.607 2.54.405 5.121.384 7.656-.06 2.395-.432 4.77-1.016 7.147-1.539.387-.084.761-.144 1.003.3.26.477.213.969-.165 1.31-.338.3-.719.535-1.126.697-3.53 1.414-7.19 2.013-11.701 2.005zM64.453 33.472c.075-1.612.395-2.685 1.413-3.273.858-.495 1.79-.513 2.598.132 1.122.897 1.496 2.238 1.46 3.7-.036 1.555-.613 2.448-1.639 2.724-1.343.361-2.57-.17-3.236-1.518-.32-.647-.48-1.402-.596-1.765zM36.536 36.908c-1.166 0-1.834-.5-2.222-1.538-.657-1.757-.229-3.717 1.074-4.876.892-.792 2.198-.837 3.004 0 .954.998 1.251 2.27.924 3.671-.317 1.364-1.02 2.367-2.334 2.692-.147.03-.296.048-.446.051z" fill="#134E4A"/><path d="M24.349 30.637l-.111.253a7.792 7.792 0 01-.12.273l-.11.264c-.108.264-.216.529-.324.8a.182.182 0 00-.026.1c-.497 1.15-.77 2.378-1.034 3.614-.238 1.108-.224 1.165-1.219 1.25-2.272.194-4.532.105-6.775-.423-1.026-.242-1.998-.66-3-.986l-.24-.172c.138-.528.635-.671.93-1.038.487-.605.514-.872-.016-1.431-.411-.434-.929-.661-1.44-.907-1.008-.47-2.028-.955-2.876-1.71-.822-.725-1.726-1.39-2.243-2.468-.438-.91-.254-1.295.665-1.349.276-.016.554.038.835.042.414.007.78-.095 1.015-.528.235-.433.12-.811-.106-1.168-.542-.862-1.142-1.672-1.65-2.568-1.04-1.785-1.497-3.91-1.296-6.023.29-.056.336.225.432.377 1.67 2.643 3.888 4.625 6.28 6.382 3.894 2.87 8.158 4.863 12.578 6.483.087.042.171.093.25.152a.767.767 0 01-.038.12.53.53 0 00-.143.173.587.587 0 00-.064.223l-.154.265zM86.638 26.694l.358-.177.119-.085.238-.132.239-.132.358-.177.133-.099.222-.111.239-.132.467-.264c.134-.089.266-.179.398-.265l.321-.166.142-.103a.883.883 0 00.447-.264l.12-.133.119-.029.145-.095c3.192-1.98 5.956-4.707 8.1-7.991.238 1.082.156 2.066-.04 3.019a10.628 10.628 0 01-1.918 4.3c-.375.472-.709.984-.996 1.527-.432.87-.12 1.492.75 1.525.455.016.91.047 1.366.06.657.022.815.265.513.943a6.504 6.504 0 01-1.443 1.991c-1.147 1.12-2.48 1.884-3.882 2.523a6.03 6.03 0 00-1.103.638c-.79.584-.81 1.08-.106 1.774.177.175.368.333.553.498.028.075.073.14.131.19a.39.39 0 00.2.09.838.838 0 010 .094 15.44 15.44 0 01-2.899 1.098c-2.695.748-5.43.767-8.181.502-.087-.486-.151-.98-.268-1.453-.287-1.165-.458-2.378-1.042-3.436a.769.769 0 00-.04-.367.695.695 0 00-.205-.293 1.153 1.153 0 00-.024-.132.215.215 0 00-.007-.117l-.075-.145-.13-.132h.006a.22.22 0 00-.007-.161.2.2 0 00-.047-.065.174.174 0 00-.066-.038.615.615 0 00-.051-.302.546.546 0 00-.187-.227v.008a.289.289 0 00-.028-.155.252.252 0 00-.102-.11v-.156a23.699 23.699 0 002.743-1.035l.358-.144c.393-.104.77-.274 1.117-.502a.085.085 0 00.04-.003.092.092 0 00.036-.02c.059-.014.12-.02.12-.115v.016h.119l.358-.168a.905.905 0 00.477-.235l.238-.108.278-.157a.08.08 0 00.04-.002.083.083 0 00.034-.02c.346-.104.672-.277.961-.512l.244-.131zM27.84 21.784l.144.41.09.132-.007-.01c.043.09.084.18.126.265.036.168.12.319.238.43.003.036.015.071.035.1l.205.27v-.006c.013.076.037.141.12.132v.39c-.476.444-.914.934-1.309 1.465a1.26 1.26 0 00-.381.514l-.098.132-.197.264-.397.677-.155.25c-.173.352-.428.22-.666.132a17.624 17.624 0 01-5.41-3.37 13.16 13.16 0 01-2.607-3.14 8.098 8.098 0 01-.755-1.849c-.225-.761.076-1.173.8-1.129.563.035 1.106 0 1.61-.332.567-.372.744-.882.483-1.554a5.033 5.033 0 00-.87-1.408c-.703-.835-1.253-1.795-1.83-2.73-.387-.626-.329-.746.328-1.013 1.67-.678 2.073-1.75 1.328-3.55-.206-.498-.46-.971-.665-1.471-.19-.457-.358-.925-.505-1.405-.076-.247-.14-.58.01-.76.19-.224.442.027.644.124 1.814.88 3.28 2.279 4.634 3.842.136.159.274.314.412.472l.11.132.1.132.132.174a.592.592 0 00.087.203.53.53 0 00.152.149l.119.141v-.006l.119.132h-.007a.313.313 0 00.03.152.277.277 0 00.099.112l.146.264.093.125.383.668c.031.042.061.086.092.132.098.237.14.512.358.66h-.006c.08.177.16.353.244.53l.376.924c.736 1.994.97 4.116 1.326 6.21.172.977.264 1.988.692 2.892zM78.504 11.89l.024-.132a.54.54 0 00.159-.17.604.604 0 00.08-.227c.12-.131.203-.299.238-.482l.239-.439a.688.688 0 00.238-.396l.239-.396.266-.397c1.146-1.617 2.407-3.116 3.965-4.247a16.53 16.53 0 012.712-1.658c.048.813-.159 1.479-.426 2.129-.32.78-.68 1.542-.967 2.336-.546 1.514.008 2.689 1.46 2.993.596.132.58.396.366.845-.527 1.094-1.257 2.027-1.955 2.987-.212.29-.406.597-.58.917-.626 1.153-.15 2.168 1.073 2.267a8.99 8.99 0 001.192 0c.308-.016.457.111.414.456-.043.345-.033.678-.149.968-.634 1.607-1.446 3.067-2.81 4.07-.323.238-.542.644-.857.899-.706.568-1.52.964-2.227 1.511-.806.627-1.686 1.036-2.553 1.503-.366.196-.605.153-.835-.265-.23-.417-.453-.88-.808-1.215l-.263-.369c-.291-.466-.681-.827-1.045-1.217l-.148-.13.009.007-.128-.14h.008v-.383a.731.731 0 00.246-.403l.12-.222c.247-.367.467-.75.476-1.23.335-.413.371-.952.454-1.454.405-2.484.539-5.031 1.43-7.4a.172.172 0 00.027-.1 1.07 1.07 0 00.211-.56c.01-.04.018-.08.022-.121l.083-.135zM80.303 48.74l.152-.386c.37-.804.596-1.668.798-2.535.316-1.351.52-2.732.607-4.124.02-.281.079-.48.377-.396.846.236 1.717.218 2.576.323 3.399.417 6.798.672 10.205.084 1.312-.226 2.612-.496 3.817-1.145a.11.11 0 00.08-.026c.42-.165.865-.272 1.193-.648l.12-.029.119-.101c.086-.018.186 0 .238-.107l.239-.08c-.319 1.348-1.17 2.311-2.086 3.121-.812.718-1.663 1.44-2.624 1.93-.538.277-1.108.476-1.655.73-.638.297-.674.518-.136.978.644.55 1.319 1.057 1.97 1.597.229.19.596.352.526.718-.072.34-.458.408-.738.472-1.478.337-2.958.235-4.436-.037a8.515 8.515 0 00-1.294-.192c-.69-.016-.905.396-.541 1.044.4.706.854 1.371 1.271 2.065.165.272.406.652.239.89-.15.215-.544.066-.835.015-2.147-.36-4.02-1.42-5.826-2.678-.239-.164-.52-.45-.809-.235-.248.185-.306.544-.305.889 0 .692.25 1.33.392 1.982.084.382-.008.433-.3.34a9.488 9.488 0 01-2.656-1.386c-.457-.33-.922-.645-1.382-.968l-.056-.121.08-.397v-.132h-.011c.129-.033.165-.15.202-.264.02-.032.03-.07.031-.108l.092-.154.159-.396.207-.534zM23.786 48.909c0 .035.009.07.026.099.066.364.22.7.447.973l.098.22.152.264c.026.177.19.317.12.529a.468.468 0 00-.21.085.53.53 0 00-.156.179v-.007a.59.59 0 00-.358.273l-.375.264a.225.225 0 00-.1.04l-.753.483-.322.143c-.623.243-1.251.474-1.869.737-.419.177-.358-.071-.285-.351a.135.135 0 00.023-.09c.28-.554.37-1.174.461-1.783.088-.587-.28-1.057-.675-.86-.915.448-1.835.897-2.667 1.529a.27.27 0 00-.166.017.303.303 0 00-.132.115c-.843.236-1.613.717-2.474.893l-1.458.295c-.392.08-.43-.083-.3-.461.308-.88.86-1.578 1.365-2.307.127-.165.222-.356.278-.563.109-.48-.018-.802-.524-.745-.768.085-1.537.169-2.298.303a8.72 8.72 0 01-3.83-.18c-.51-.131-.537-.32-.178-.774.572-.725 1.404-1.057 2.038-1.69.2-.2.551-.3.51-.662-.048-.42-.424-.474-.716-.58-1.726-.61-3.278-1.544-4.579-2.963a9.023 9.023 0 01-1.62-2.503c-.065-.145-.153-.29.092-.318l.164.132c.137.25.365.32.596.372.021.02.049.03.077.027.227.18.486.306.76.372a.087.087 0 00.076.024c1.167.68 2.467.925 3.722 1.258 1.118.292 2.315.248 3.477.292 3.232.122 6.45-.012 9.627-.757.256-.06.41-.032.407.334-.005 1.18.113 2.356.35 3.506.27 1.32.595 2.624 1.18 3.836z" fill="#FAFAFA"/><path d="M67.048 66.63l-30.724-.341" stroke="#134E4A" stroke-width="3"/><path d="M31.088 57.202c.776.074 1.505.336 2.21.764l.3.195c2.434 1.66 5.247 2.448 8.298 3.17h.001c4.597 1.09 9.296 1.279 14.066 1.005l.732-.048c3.657-.272 7.2-.99 10.564-2.452.322-.14.65-.315 1.025-.523.357-.198.78-.438 1.209-.65h.001c.198-.098.459-.197.748-.25.204-.036.65-.094 1.125.098l.205.099.637.368c3.153 1.877 5.923 4.322 8.177 7.48 1.428 2.002 1.975 4.3 2.274 6.482l.23 1.72c.075.54.155 1.069.251 1.598l.012.022c.018.029.041.062.07.1l.106.127.007.01c1.932 2.241 3.876 4.458 5.825 6.697.119.136.277.336.332.403l.58.702-.356.839-.097.22-.56 1.266-1.307-.458c-1.105-.387-2.283-.78-3.44-1.23l-.008-.003a11.233 11.233 0 01-.667-.295c0 1.25 0 2.507-.014 3.762v.037l-.002.037a3.11 3.11 0 00-.003.212c0 .089.004.234-.002.382a3.146 3.146 0 01-.272 1.206c-.098.214-.373.77-1.013 1.025-.837.333-1.507-.1-1.776-.346a2.631 2.631 0 01-.528-.703 6.096 6.096 0 01-.289-.634 21.385 21.385 0 01-.442-1.274 15.787 15.787 0 00-.307-.902l-.18-.453a39.298 39.298 0 01-.672-1.928c-.974.801-1.954 1.591-2.91 2.373l-1.133.924-.954-1.108-.171-.2-.623-.722.391-.87c.773-1.72 1.565-3.735 2.528-5.527l.11-.214c.52-1.06.603-2.002.259-3.085l-.004-.014-.005-.014a12.428 12.428 0 01-.42-2.01l-.042-.268c-.245-1.317-.92-2.285-1.936-3.015a152.618 152.618 0 00-4.811-3.301l-.01.117-1.375-.016-30.724-.34-1.768-.02.146-.836c-1.792.2-3.422.538-4.934 1.321l-.362.198c-1.533.88-2.318 2.251-2.536 4.345a35.832 35.832 0 01-.246 1.793c-.087.566-.17 1.092-.228 1.615a.982.982 0 00.036.335l.037.105.002.006c.926 2.19 1.884 4.354 2.84 6.554l.01.021.008.022c.067.166.124.336.172.508l.238.856-.636.619-.12.117-1.004.98-1.044-.938-2.492-2.237c-.66 1.744-1.325 3.507-1.99 5.268l-.422 1.117-1.183-.16-.254-.035-1.204-.162-.09-1.212-.39-5.154a53.54 53.54 0 01-1.86 1.385c-.356.248-.709.481-1.031.67-.29.169-.671.372-1.054.47a1.89 1.89 0 01-.988.002 1.634 1.634 0 01-1.147-1.205 1.96 1.96 0 01.045-.998c.066-.223.163-.44.263-.636.262-.514.607-.978.722-1.155.205-.315.438-.66.652-.976 1.07-1.585 2.187-3.384 3.417-5.004v-.001c.178-.233.277-.5.337-.887a8.1 8.1 0 00.067-.692c.017-.25.033-.57.064-.88.265-2.67.54-5.681 1.913-8.432 1.872-3.753 4.913-5.745 8.316-6.924.78-.27 1.603-.434 2.478-.35z" fill="#FAFAFA" stroke="#134E4A" stroke-width="3"/></svg>