<svg width="46" height="46" fill="none" xmlns="http://www.w3.org/2000/svg"><path d="M37.244 36.88l.735 1.17.082.13-.005.153c-.025.723-.05 1.517-.295 2.275.522.44 1.04.873 1.55 1.314l.008.007c.186.167.358.352.513.553h-.002a.898.898 0 01.152.323.881.881 0 01.028.166.612.612 0 01-.007.135c-.006.033-.032.193-.178.316a1.077 1.077 0 01-.256.16.717.717 0 01-.463.047v0l-.006-.001-.006-.001v-.001a10.33 10.33 0 01-1.254-.405l-.013-.004v-.001l-.028-.013c.052.158.096.32.128.483h-.001c.032.167.04.469-.204.68-.27.235-.591.145-.755.056v-.001c-.274-.148-.6-.323-.893-.558a8.91 8.91 0 01-.596-.538c-.254.26-.524.533-.801.786l-.01.009a3.143 3.143 0 01-.778.497v-.002a.906.906 0 01-.433.073.74.74 0 01-.505-.234h0a.92.92 0 01-.196-.43 1.143 1.143 0 01-.005-.412c.052-.282.176-.549.252-.724v-.002c.323-.747.595-1.46.695-2.218.031-.239.025-.45.042-.787l-.03-1.387-.002-.105.04-.095.5-1.222.121-.292.314-.017 2.11-.117.295-.016.157.25z" fill="#2DD4BF" stroke="#134E4A"/><path d="M33.88 35.681c-.418.768-.74 1.598-1.102 2.402l.08.09c.576-.47 1.157-.935 1.727-1.415.264-.223.321-.211.436.138.17.518.329 1.042.534 1.542.02.048.04.096.062.144l-1.385.19c-.264.202-.528.425-.81.611a4.823 4.823 0 01-.84.468.684.684 0 01-.468.036.748.748 0 01-.396-.278c-.119-.153-.21-.135-.335-.058-.633.391-1.27.781-1.9 1.18-1.06.669-2.147 1.253-3.363 1.504-2.002.412-3.877.027-5.654-1.04-.61-.367-1.152-.327-1.73.144.007.046.017.09.03.134.297.797.057 1.428-.514 1.929a16.5 16.5 0 01-3.677 2.464c-.24.112-.503.155-.763.124-.409-.052-.616-.399-.55-.865.052-.36.15-.711.228-1.058-.445-.066-.917-.134-1.388-.207a.755.755 0 01-.2-.066c-.587-.272-.7-.747-.25-1.242a10.99 10.99 0 011.275-1.216c.398-.317.69-.622.785-1.217.144-.888.68-1.582 1.206-2.251.431-.549.877-1.083 1.325-1.633-.557-.83-.978-1.737-1.186-2.736-.206-.986-.338-1.992-.51-3.034a2.272 2.272 0 00-1.194.603c-.633.62-.866 1.452-1.028 2.332-.08.437.018.804.163 1.201.334.91.64 1.833.918 2.768.053.178.06.37.016.55a.986.986 0 01-.258.471c-.261.27-.605.293-.913.144-.413-.2-.801-.468-1.221-.715-.09.241-.183.508-.285.77-.22.562-.436 1.125-.845 1.562-.57.607-1.22.508-1.605-.257-.28-.556-.342-1.175-.393-1.795-.01-.134 0-.271 0-.409-.433.157-.85.322-1.276.456-.374.117-.755.158-1.134-.015-.402-.184-.578-.566-.455-1.032.19-.715.6-1.29.986-1.875.46-.702.95-1.372 1.415-2.067.07-.104.09-.27.09-.405-.006-1.578.236-3.09.911-4.495.814-1.695 2.078-2.8 3.689-3.449.04-.016.082-.03.122-.048.025-.01.047-.027.077-.044-.211-.26-.417-.526-.642-.767-.045-.048-.19-.037-.26.005-.4.24-.778.533-1.19.74a5.086 5.086 0 01-1.167.402c-.527.117-.973-.058-1.224-.632-.494.143-.976.307-1.468.414a2.046 2.046 0 01-.811.012c-.76-.148-1.081-.605-1.16-1.605-.37-.04-.74-.066-1.108-.126-.49-.08-.958-.234-1.346-.6-.61-.575-.646-1.227-.108-1.892.052-.065.105-.127.169-.203-.247-.254-.495-.495-.728-.752C.68 19.043.191 18.291.026 17.34a2.12 2.12 0 01.015-.748c.125-.637.638-.97 1.2-.756.41.156.801.377 1.194.584a3.7 3.7 0 001.481.453c.074.005.15-.007.256-.012-.791-.67-.89-.887-.755-1.607a7.056 7.056 0 01-1.91-1.967c-.337-.524-.632-1.075-.67-1.742-.035-.556.171-.956.627-1.197.062-.033.119-.077.188-.123-.13-.308-.27-.598-.377-.902a6.062 6.062 0 01-.287-2.995c.08-.5.299-.911.771-1.038.507-.135.927.054 1.242.527.322.484.633.982.992 1.432a6.855 6.855 0 002.261 1.878c-.096-.351-.204-.673-.267-1.003a1.73 1.73 0 01-.004-.63c.088-.468.302-.652.73-.691.092-.01.184-.013.308-.021-.21-.293-.407-.549-.585-.819-.278-.429-.49-.894-.49-1.443-.002-.638.246-1.02.792-1.218.048-.018.097-.03.122-.038-.14-.478-.312-.935-.404-1.412a2.7 2.7 0 010-1.008C6.58.218 7.213-.12 7.837.05c.785.215 1.44.696 2.058 1.248 1.452 1.298 2.569 2.864 3.086 4.88.184.714.264 1.462.408 2.187.087.443.26.687.596.929.604-.403 1.185-.836 1.803-1.193a14.046 14.046 0 015.15-1.779c3.882-.54 7.463.355 10.73 2.752.383.28.476.303.675-.157.177-.43.29-.888.336-1.357a9.162 9.162 0 011.988-4.845c.685-.856 1.435-1.637 2.344-2.19.39-.238.81-.407 1.246-.501.828-.175 1.3.688 1.218 1.461a5.425 5.425 0 01-.193.902c-.083.292-.2.575-.307.877.474.086.853.34.956.882.052.27.014.581-.053.853-.17.706-.571 1.258-1.077 1.78.105.009.178.02.25.02.823-.004 1.007.8.892 1.402-.061.326-.178.639-.276.98.87-.44 1.587-1.084 2.22-1.84.344-.41.635-.878.955-1.316.108-.153.226-.298.353-.432.646-.656 1.527-.37 1.73.576.264 1.232.066 2.407-.401 3.54-.073.176-.152.35-.227.526-.004.008 0 .02 0 .04.37.167.73.385.797.867.042.296.04.631-.047.91-.345 1.12-1.043 1.96-1.854 2.698a1.36 1.36 0 01-.21.176c-.29.172-.48.364-.384.796.067.305-.15.543-.356.735-.144.134-.3.25-.47.39.615.08 1.161-.094 1.689-.362.286-.145.56-.32.844-.47.154-.091.319-.16.488-.207.813-.178 1.361.526 1.167 1.501-.228 1.143-.86 2.001-1.612 2.77-.123.125-.25.244-.39.378.11.142.216.267.308.405.419.633.296 1.286-.338 1.775-.52.401-1.118.534-1.735.584-.2.017-.401 0-.62 0a4.862 4.862 0 01-.04.489c-.14.754-.633 1.169-1.38 1.209-.686.034-1.299-.252-1.917-.518-.349.64-.797.824-1.488.667-.77-.175-1.444-.57-2.097-1.029-.087-.058-.176-.122-.246-.169l-1.743 1.67c.856.57 1.647 1.252 2.356 2.031.753.84 1.417 1.75 1.803 2.873.21.615.207.614.798.615 1.152 0 2.244-.358 3.347-.658.762-.208 1.52-.446 2.292-.596.531-.103 1.091-.12 1.55.322.474.458.5 1.036.358 1.655-.286 1.25-1.003 2.183-1.833 3.025-.866.876-1.868 1.504-2.955 1.978-.052.024-.108.054-.143.072.089.221.206.423.253.643.142.658-.269 1.163-.95 1.216a3.386 3.386 0 01-1.52-.246c-.147-.058-.299-.1-.463-.153l-1.223.167c.003-.56.001-1.12.001-1.679 0-.335.062-.385.338-.255.288.138.569.3.865.416.495.193 1.002.359 1.5.536l.038-.088c-.044-.054-.088-.11-.134-.163-.86-.989-1.723-1.974-2.58-2.967-.098-.117-.205-.258-.232-.405-.092-.503-.151-1.012-.221-1.52-.127-.93-.35-1.819-.889-2.571-1.002-1.403-2.249-2.473-3.683-3.28-.076-.042-.211-.004-.301.04-.343.17-.67.382-1.017.533-1.678.73-3.437 1.056-5.223 1.16-2.15.126-4.297.04-6.413-.461-1.352-.32-2.704-.69-3.891-1.5-.555-.379-1.04-.39-1.615-.19-1.395.482-2.573 1.27-3.302 2.731-.544 1.088-.66 2.294-.779 3.499-.048.49-.005.985-.338 1.423-.528.698-.997 1.453-1.491 2.184-.095.14-.19.28-.282.422-.092.142-.17.27-.284.45.945-.32 1.726-.845 2.532-1.44.09 1.197.176 2.353.264 3.508l.112.015 1.223-3.237 1.823 1.637.053-.052a1.508 1.508 0 00-.053-.157c-.422-.968-.847-1.933-1.259-2.905a1.092 1.092 0 01-.083-.512c.053-.51.158-1.013.21-1.52.114-1.086.547-1.91 1.452-2.43.983-.563 2.042-.716 3.117-.805.238-.02.334.125.28.425-.174.968-.145 1.942.02 2.898.468 2.727 1.674 4.986 3.648 6.7 1.427 1.24 3.074 1.884 4.893 1.887 1.29 0 2.493-.433 3.651-1.044 1.094-.578 2.095-1.377 3.295-1.705a.251.251 0 00.092-.053.284.284 0 00.066-.089c.17-.441.329-.887.49-1.33-1.57-.184-3.018.176-4.412.97a.974.974 0 01.041-.41c.229-.617.475-1.227.698-1.847.487-1.344.841-2.73.983-4.173.053-.55.07-1.104.125-1.653.042-.429.132-.49.46-.273.897.59 1.788 1.187 2.66 1.812a2.713 2.713 0 011.146 1.902c.033.268.088.532.164.79.223.701.137 1.326-.21 1.974zm-3.106-4.416l-.943 3.967h3.03c.037-.192.145-.463.133-.727-.077-1.655-.988-2.617-2.22-3.24zM14.411 44.43l.077.045c.637-.443 1.278-.88 1.91-1.331.324-.231.646-.468.95-.734.264-.234.253-.318.088-.643-.164-.324-.329-.662-.467-1.005-.14-.344-.122-.394.197-.543.475-.221.95-.429 1.402-.632l-1.704-1.994c-.365.467-.746.94-1.108 1.43a8.28 8.28 0 00-.638.993c-.181.34-.137.689.1.994.117.15.225.308.354.485-1.08.04-1.928.573-2.704 1.286l.014.089 2.321-.278-.792 1.838zM37.182 32.55c.016.13.038.263.048.398.037.475.215.858.528 1.193.393.415.763.86 1.12 1.314.159.199.295.243.521.153 1.122-.444 2.163-1.052 3.078-1.898.58-.537 1.1-1.146 1.355-1.966.116-.371-.01-.556-.355-.574-.601-.032-1.154.198-1.713.381-1.037.339-2.058.745-3.142.874-.474.056-.954.084-1.44.125zm-14.14-5.83c1.31-.01 2.615-.14 3.904-.391 1.94-.39 3.74-1.127 5.3-2.498 2.331-2.05 3.11-4.948 2.465-8.008-.444-2.104-1.54-3.765-3.026-5.121-2.01-1.835-4.342-2.823-6.915-3.139a14.262 14.262 0 00-4.042.065c-2.57.419-4.887 1.49-6.821 3.441-1.688 1.701-2.776 3.755-2.86 6.357-.043 1.326.184 2.588.738 3.764.96 2.046 2.501 3.359 4.402 4.199 2.06.91 4.214 1.257 6.855 1.33z" fill="#134E4A"/><path d="M23.043 26.72c-2.642-.073-4.797-.42-6.858-1.329-1.9-.84-3.442-2.154-4.402-4.2-.552-1.175-.78-2.436-.739-3.763.085-2.602 1.174-4.656 2.86-6.357 1.935-1.951 4.252-3.022 6.821-3.44a14.262 14.262 0 014.043-.066c2.572.317 4.906 1.304 6.915 3.14 1.486 1.355 2.582 3.017 3.025 5.12.645 3.059-.133 5.957-2.464 8.008-1.557 1.37-3.356 2.107-5.296 2.497-1.29.25-2.596.381-3.905.39zm-.39-7.234c1.996.003 3.615-.262 5.178-.887a1.69 1.69 0 00.498-.309c.167-.15.188-.368.073-.579-.105-.196-.273-.17-.444-.133-1.055.234-2.102.49-3.161.68a10.238 10.238 0 01-3.386.028c-1.13-.176-2.247-.463-3.367-.711-.181-.04-.314 0-.413.161-.1.162-.12.356.01.51.09.103.199.185.32.238 1.615.706 3.302.977 4.692 1.002zm5.856-4.676c.052.16.12.493.263.782.295.596.838.83 1.431.671.454-.122.71-.517.726-1.205.015-.649-.15-1.242-.646-1.636-.357-.285-.77-.277-1.15-.059-.45.257-.592.732-.625 1.444v.003zM16.16 16.326c.065-.002.13-.01.194-.023.58-.144.892-.587 1.033-1.19.144-.62.015-1.183-.41-1.624-.356-.37-.934-.351-1.328 0-.574.512-.763 1.38-.475 2.156.174.462.47.681.986.681zM37.182 32.551c.485-.041.965-.069 1.442-.125 1.084-.129 2.106-.535 3.142-.874.56-.183 1.112-.413 1.714-.381.345.018.47.203.355.574-.256.818-.774 1.429-1.355 1.966-.915.847-1.956 1.454-3.078 1.898-.227.09-.364.046-.52-.153a19.309 19.309 0 00-1.122-1.314 1.856 1.856 0 01-.527-1.193c-.013-.135-.035-.268-.05-.398zM14.411 44.43l.792-1.84-2.321.278-.015-.089c.777-.71 1.624-1.242 2.704-1.285-.128-.176-.236-.335-.353-.485-.238-.308-.282-.656-.1-.994.19-.348.403-.68.638-.993.36-.49.738-.96 1.108-1.43l1.703 1.998c-.453.203-.93.409-1.403.631-.316.15-.34.192-.197.543.142.35.3.677.468 1.005.167.329.176.41-.09.643-.3.265-.623.503-.949.734-.633.45-1.273.888-1.91 1.331l-.075-.047zM30.774 31.265c1.232.623 2.143 1.585 2.22 3.24.012.263-.096.534-.134.726h-3.03c.313-1.312.628-2.634.944-3.966z" fill="#2DD4BF"/><path d="M22.653 19.486c-1.39-.025-3.077-.297-4.695-1.002a.912.912 0 01-.32-.239c-.13-.153-.114-.34-.01-.509.105-.167.233-.2.414-.161 1.12.248 2.237.535 3.367.71a10.24 10.24 0 003.386-.026c1.06-.19 2.11-.449 3.161-.68.171-.038.337-.064.444.132.115.211.094.429-.073.58a1.69 1.69 0 01-.499.308c-1.56.625-3.18.89-5.175.887zM28.508 14.807c.033-.713.175-1.188.625-1.448.38-.22.791-.227 1.15.058.495.397.66.99.645 1.637-.016.688-.271 1.083-.725 1.205-.594.16-1.137-.075-1.431-.671-.142-.287-.212-.62-.264-.781zM16.16 16.327c-.516 0-.811-.222-.983-.68-.29-.778-.1-1.645.475-2.158.395-.35.972-.37 1.329 0 .422.442.553 1.004.409 1.624-.14.604-.452 1.047-1.032 1.19a1.094 1.094 0 01-.198.024z" fill="#134E4A"/><path d="M10.77 13.552l-.05.113a3.38 3.38 0 01-.052.12l-.05.117c-.047.117-.095.234-.142.354a.08.08 0 00-.012.044c-.22.51-.34 1.052-.457 1.599-.106.49-.1.515-.54.553-1.004.085-2.004.046-2.996-.188-.454-.106-.884-.292-1.327-.435l-.106-.077c.06-.233.28-.296.411-.459.216-.268.227-.386-.007-.633-.182-.192-.41-.292-.637-.4-.446-.209-.897-.424-1.272-.757-.363-.321-.763-.615-.992-1.092-.194-.403-.112-.573.294-.597.122-.007.245.017.37.019.183.003.345-.042.448-.234.104-.192.053-.359-.046-.517-.24-.38-.505-.74-.73-1.135a4.475 4.475 0 01-.573-2.665c.128-.025.148.1.19.167.739 1.169 1.72 2.046 2.778 2.823 1.723 1.27 3.609 2.151 5.563 2.868a.66.66 0 01.111.067.34.34 0 01-.017.053.234.234 0 00-.063.077.261.261 0 00-.028.098l-.068.117zM38.32 11.808l.159-.078.053-.037.105-.059.105-.058.159-.079.059-.043.098-.05.105-.058.207-.117.177-.117.141-.073.063-.046a.39.39 0 00.198-.117l.053-.058.052-.013.065-.042A11.61 11.61 0 0043.7 7.228c.106.478.07.914-.018 1.335a4.7 4.7 0 01-.847 1.902c-.167.21-.314.436-.441.676-.192.385-.053.66.331.674.202.008.403.021.605.027.29.01.36.117.227.417a2.878 2.878 0 01-.639.88c-.507.497-1.096.834-1.717 1.117a2.66 2.66 0 00-.488.282c-.35.258-.358.478-.047.785.079.077.163.147.245.22a.2.2 0 00.058.084.173.173 0 00.088.04v.042a6.833 6.833 0 01-1.282.486c-1.192.33-2.402.339-3.618.222-.039-.215-.067-.434-.119-.643-.127-.516-.203-1.052-.46-1.52a.34.34 0 00-.019-.163.307.307 0 00-.09-.13.498.498 0 00-.01-.058.095.095 0 00-.004-.051l-.033-.064-.058-.059h.003a.097.097 0 00-.003-.071.087.087 0 00-.02-.029.078.078 0 00-.03-.017.273.273 0 00-.023-.133.243.243 0 00-.082-.1v.003a.127.127 0 00-.013-.069.11.11 0 00-.045-.048v-.07c.412-.126.817-.28 1.214-.457l.158-.064a1.69 1.69 0 00.494-.222c.006.001.012 0 .018-.001a.04.04 0 00.016-.01c.026-.005.053-.008.053-.05v.007h.052l.159-.074a.4.4 0 00.21-.104l.106-.048.123-.07a.034.034 0 00.017 0 .037.037 0 00.016-.01c.153-.045.297-.122.425-.226l.108-.058zM12.314 9.636l.064.181.04.059-.004-.004c.02.04.037.08.056.117a.366.366 0 00.105.19.084.084 0 00.016.044l.09.12v-.003c.006.034.017.063.053.059v.173a4.77 4.77 0 00-.578.647.558.558 0 00-.17.228l-.043.058-.086.117-.176.3-.069.11c-.076.156-.19.097-.294.058a7.796 7.796 0 01-2.393-1.49 5.823 5.823 0 01-1.153-1.39 3.584 3.584 0 01-.334-.818c-.1-.336.033-.519.354-.499.248.016.489 0 .712-.147.25-.164.329-.39.213-.687a2.227 2.227 0 00-.384-.623c-.312-.37-.555-.794-.81-1.208-.17-.277-.145-.33.145-.448.739-.3.917-.774.588-1.57-.092-.22-.204-.43-.295-.65a6.85 6.85 0 01-.223-.622c-.034-.11-.061-.257.005-.336.083-.1.195.011.284.054.803.39 1.451 1.008 2.05 1.7l.182.208.05.059.043.058.059.078c.007.032.02.062.038.09.018.026.041.048.067.065l.053.063v-.003l.053.058h-.004a.139.139 0 00.014.067c.01.021.025.038.043.05l.065.117.041.055.17.296a1.7 1.7 0 01.04.058c.044.105.062.226.159.292h-.003l.108.234.166.41c.326.881.43 1.82.587 2.746.076.432.117.88.306 1.28zM34.723 5.26l.01-.059a.239.239 0 00.07-.075.267.267 0 00.036-.1.437.437 0 00.105-.214l.106-.194a.304.304 0 00.106-.175l.105-.175.118-.176c.507-.715 1.065-1.378 1.754-1.878.378-.285.78-.53 1.2-.734.02.36-.071.654-.19.942-.141.345-.3.682-.427 1.033-.242.67.004 1.19.646 1.324.264.059.257.175.162.374-.233.484-.556.897-.865 1.321-.094.129-.18.264-.257.406-.276.51-.066.959.475 1.003.176.011.352.011.527 0 .137-.007.202.049.183.201-.019.153-.014.3-.065.429-.281.71-.64 1.357-1.243 1.8-.143.105-.24.285-.38.398-.312.251-.672.426-.984.668-.357.277-.746.459-1.13.665-.162.087-.267.068-.369-.117-.102-.185-.2-.39-.357-.538l-.117-.163c-.129-.206-.301-.366-.462-.538l-.065-.058.003.003-.056-.061h.004v-.17a.323.323 0 00.108-.178l.053-.098c.11-.163.207-.332.211-.545.148-.182.164-.42.2-.643.18-1.098.239-2.225.634-3.273a.077.077 0 00.011-.044.473.473 0 00.093-.248.295.295 0 00.01-.054l.037-.06zM35.519 21.56l.067-.17c.164-.356.264-.738.353-1.122.14-.597.23-1.208.268-1.824.01-.124.035-.213.167-.175.374.104.76.096 1.14.143 1.503.184 3.006.297 4.513.037.58-.1 1.155-.22 1.688-.506a.05.05 0 00.036-.012c.186-.073.383-.12.528-.286l.052-.013.053-.045c.038-.008.083 0 .106-.048l.105-.035c-.14.596-.517 1.023-.922 1.38-.36.318-.736.637-1.161.855-.238.122-.49.21-.732.322-.282.132-.298.23-.06.433.285.244.583.468.871.707.101.084.264.155.233.317-.032.15-.203.18-.327.209-.653.149-1.308.104-1.962-.017a3.761 3.761 0 00-.572-.084c-.305-.007-.4.175-.24.461.177.313.378.607.563.914.073.12.18.288.105.393-.066.096-.24.03-.369.007-.95-.16-1.777-.628-2.577-1.184-.105-.073-.23-.2-.357-.104-.11.081-.136.24-.135.393 0 .306.11.588.173.877.037.169-.004.191-.133.15a4.196 4.196 0 01-1.175-.613c-.202-.146-.407-.286-.611-.428l-.025-.054.036-.175v-.059h-.005c.057-.014.073-.066.09-.117a.1.1 0 00.013-.047l.04-.068.071-.176.092-.236zM10.52 21.635c0 .016.005.031.012.044.03.161.098.31.198.43l.043.098.067.117c.012.078.084.14.053.233a.207.207 0 00-.093.038.236.236 0 00-.068.08v-.003a.26.26 0 00-.159.12l-.166.117a.101.101 0 00-.044.018l-.333.213-.142.063c-.276.108-.554.21-.827.327-.185.078-.158-.032-.126-.156a.06.06 0 00.01-.04c.124-.245.164-.519.204-.788.04-.26-.124-.468-.298-.38-.405.197-.812.396-1.18.676a.12.12 0 00-.074.007.134.134 0 00-.058.051c-.373.105-.713.317-1.094.395l-.645.13c-.174.036-.19-.036-.132-.204.136-.389.38-.697.603-1.02a.712.712 0 00.123-.249c.048-.212-.008-.355-.232-.33-.34.038-.68.075-1.016.135-.564.1-1.14.072-1.694-.08-.226-.058-.238-.142-.079-.342.253-.321.62-.468.901-.748.089-.088.244-.133.226-.293-.021-.186-.188-.21-.317-.256-.763-.27-1.45-.684-2.025-1.311a3.993 3.993 0 01-.717-1.107c-.028-.065-.067-.128.041-.141l.073.058c.06.11.161.142.263.165.01.009.022.013.034.012.101.08.215.135.336.165a.041.041 0 00.034.01c.516.3 1.091.41 1.646.556.495.13 1.024.11 1.539.13 1.43.053 2.852-.006 4.258-.335.112-.026.18-.014.18.148-.003.521.05 1.042.155 1.55.119.584.262 1.161.52 1.697z" fill="#2DD4BF"/><path d="M12.709 25.614c.33-.114.67-.181 1.026-.147.315.03.614.136.908.315l.126.081.209.137c1.054.66 2.25.99 3.516 1.29l.385.087c1.93.41 3.896.475 5.883.361 1.746-.102 3.442-.42 5.052-1.12.15-.064.301-.145.468-.237.16-.09.342-.192.527-.284h.001c.077-.038.178-.076.287-.096a.718.718 0 01.48.068c1.492.84 2.797 1.956 3.845 3.425.61.853.846 1.838.977 2.794.071.52.13 1.01.219 1.498.002.005.008.02.022.043l.094.123.002.003c.855.992 1.716 1.974 2.578 2.964l.144.174.193.234-.12.28a7.4 7.4 0 01-.04.094l-.188.423-.435-.153c-.492-.172-1.008-.345-1.516-.542l-.003-.002a6.525 6.525 0 01-.52-.24c0 .639.003 1.282-.004 1.925l-.001.012v.012a1.544 1.544 0 00-.002.105c0 .041.001.101-.001.162-.005.13-.025.294-.106.472a.688.688 0 01-.359.369.586.586 0 01-.615-.122 1.009 1.009 0 01-.2-.268 2.544 2.544 0 01-.12-.263 9.338 9.338 0 01-.192-.553 6.928 6.928 0 00-.14-.412v-.001a17.579 17.579 0 01-.449-1.27c-.49.406-.984.807-1.47 1.203l-.378.309-.317-.37-.076-.088-.208-.241.13-.29c.348-.772.69-1.649 1.113-2.435.292-.543.353-1.028.176-1.586l-.003-.009a5.35 5.35 0 01-.18-.865 2.196 2.196 0 00-.758-1.418l-.184-.145a70.74 70.74 0 00-2.354-1.608l-.038.522c-.017.274-.036.559-.064.843-.147 1.494-.513 2.92-1.01 4.294-.135.37-.287.765-.434 1.149a7.258 7.258 0 013.694-.528l.628.074-.216.594c-.16.438-.321.89-.493 1.337l-.007.019-.009.017a.751.751 0 01-.459.403l-.009.004-.01.003c-.536.146-1.041.402-1.566.708-.502.292-1.07.662-1.626.956h0c-1.122.59-2.321 1.044-3.624 1.096l-.262.005c-1.947-.003-3.709-.696-5.22-2.008-2.07-1.798-3.327-4.166-3.813-6.993l-.058-.378a8.722 8.722 0 01.01-2.506c-.953.092-1.824.254-2.627.715h0c-.733.422-1.102 1.082-1.203 2.047a15.59 15.59 0 01-.107.785c-.039.25-.076.487-.103.722v.072a.6.6 0 00.022.14l.023.065v.002c.205.484.414.967.624 1.45l.634 1.45.003.008.003.008c.027.067.05.137.07.207l.08.286-.213.206-.052.052-.335.326-.349-.313-1.28-1.15c-.32.845-.641 1.7-.964 2.555l-.14.373-.395-.054-.112-.015-.402-.055-.03-.403-.194-2.583c-.347.27-.735.568-1.057.793-.156.109-.308.21-.445.29a1.766 1.766 0 01-.424.19.674.674 0 01-.352.002.56.56 0 01-.393-.412.703.703 0 01.018-.358c.025-.085.063-.171.105-.253.11-.218.25-.405.31-.497.09-.138.192-.29.286-.43.479-.708.967-1.494 1.507-2.206l.067-.101c.058-.106.092-.224.114-.366.015-.097.023-.2.031-.32.008-.113.014-.25.027-.383.118-1.187.24-2.488.83-3.674.804-1.61 2.109-2.468 3.587-2.98z" fill="#2DD4BF" stroke="#134E4A"/></svg>