<svg width="50" height="50" fill="none" xmlns="http://www.w3.org/2000/svg"><path d="M0 24.39C0 12.893 0 7.144 3.572 3.572 7.144 0 12.892 0 24.39 0h1.22c11.497 0 17.246 0 20.818 3.572C50 7.144 50 12.892 50 24.39v1.22c0 11.497 0 17.246-3.572 20.818C42.856 50 37.108 50 25.61 50h-1.22c-11.497 0-17.246 0-20.818-3.572C0 42.856 0 37.108 0 25.61v-1.22z" fill="#E5F4F2"/><path opacity=".2" d="M29.902 19.078c.458.834.699 1.77.7 2.72v.39a1.58 1.58 0 01-1.24 1.551c-1.432.32-2.895.475-4.362.46-1.467.015-2.93-.14-4.362-.46a1.58 1.58 0 01-1.24-1.55v-.31c0-.982.256-1.947.74-2.801-3.751.77-6.342 2.42-6.342 4.321 0 2.651 5.012 4.802 11.204 4.802 6.192 0 11.204-2.15 11.204-4.802 0-1.9-2.57-3.541-6.302-4.321z" fill="#2DD4BF"/><path d="M29.082 31.072l.39 2.361M25 31.402v3.202M20.919 31.072l-.39 2.361M29.902 19.078c3.731.78 6.302 2.42 6.302 4.321 0 2.651-5.012 4.802-11.204 4.802-6.192 0-11.204-2.15-11.204-4.802 0-1.9 2.59-3.551 6.342-4.321" stroke="#2DD4BF" stroke-width="1.448" stroke-linecap="round" stroke-linejoin="round"/><path d="M19.398 22.189a1.58 1.58 0 001.24 1.55A19.15 19.15 0 0025 24.2a19.15 19.15 0 004.362-.46 1.581 1.581 0 001.24-1.55v-.39a5.601 5.601 0 00-5.672-5.602c-3.081.04-5.532 2.61-5.532 5.682v.31z" stroke="#2DD4BF" stroke-width="1.448" stroke-linecap="round" stroke-linejoin="round"/></svg>