<svg width="50" height="50" fill="none" xmlns="http://www.w3.org/2000/svg"><path d="M0 24.39C0 12.893 0 7.144 3.572 3.572 7.144 0 12.892 0 24.39 0h1.22c11.497 0 17.246 0 20.818 3.572C50 7.144 50 12.892 50 24.39v1.22c0 11.497 0 17.246-3.572 20.818C42.856 50 37.108 50 25.61 50h-1.22c-11.497 0-17.246 0-20.818-3.572C0 42.856 0 37.108 0 25.61v-1.22z" fill="#E5F4F2"/><path opacity=".2" d="M33.003 16.197h-3.201a.8.8 0 00-.8.8v3.201a.8.8 0 00.8.8h3.201a.8.8 0 00.8-.8v-3.201a.8.8 0 00-.8-.8z" fill="#2DD4BF"/><path opacity=".2" d="M16.997 16.241H20.2c.416 0 .754.34.754.756v3.201a.756.756 0 01-.754.755h-3.202a.756.756 0 01-.755-.755v-3.2c0-.418.338-.757.755-.757zM29.802 29.046h3.202c.416 0 .754.34.754.756v3.201a.755.755 0 01-.755.755h-3.2a.756.756 0 01-.756-.755v-3.2c0-.418.338-.757.755-.757zM16.997 29.046H20.2c.416 0 .754.34.754.756v3.201a.755.755 0 01-.754.755h-3.202a.756.756 0 01-.755-.755v-3.2c0-.418.338-.757.755-.757z" fill="#2DD4BF" stroke="#2DD4BF" stroke-width=".091"/><path d="M33.003 16.197h-3.201a.8.8 0 00-.8.8v3.201a.8.8 0 00.8.8h3.201a.8.8 0 00.8-.8v-3.201a.8.8 0 00-.8-.8zM20.198 16.197h-3.201a.8.8 0 00-.8.8v3.201a.8.8 0 00.8.8h3.201a.8.8 0 00.8-.8v-3.201a.8.8 0 00-.8-.8zM33.003 29.002h-3.201a.8.8 0 00-.8.8v3.201a.8.8 0 00.8.8h3.201a.8.8 0 00.8-.8v-3.201a.8.8 0 00-.8-.8zM20.198 29.002h-3.201a.8.8 0 00-.8.8v3.201a.8.8 0 00.8.8h3.201a.8.8 0 00.8-.8v-3.201a.8.8 0 00-.8-.8zM18.598 29.002v-8.003M29.002 31.402h-8.003M31.402 20.998v8.004M20.998 18.597h8.004" stroke="#2DD4BF" stroke-width="1.448" stroke-linecap="round" stroke-linejoin="round"/></svg>