<svg width="424" height="7" fill="none" xmlns="http://www.w3.org/2000/svg"><path d="M3.452 6.904c-.946 0-1.758-.34-2.436-1.017C.34 5.21 0 4.397 0 3.452c0-.946.339-1.758 1.016-2.436C1.694.34 2.506 0 3.452 0S5.21.34 5.887 1.016c.678.678 1.017 1.49 1.017 2.436 0 .626-.16 1.202-.48 1.726a3.581 3.581 0 01-1.246 1.265 3.29 3.29 0 01-1.726.46zm14.87 0c-.945 0-1.757-.34-2.434-1.017-.678-.677-1.017-1.49-1.017-2.435 0-.946.339-1.758 1.016-2.436C16.566.34 17.377 0 18.323 0s1.758.339 2.435 1.016c.678.678 1.017 1.49 1.017 2.436 0 .626-.16 1.202-.48 1.726a3.581 3.581 0 01-1.246 1.265 3.29 3.29 0 01-1.726.46zm14.872 0c-.946 0-1.758-.34-2.435-1.017-.678-.677-1.017-1.49-1.017-2.435 0-.946.34-1.758 1.017-2.436C31.436.34 32.248 0 33.194 0s1.758.339 2.435 1.016c.678.678 1.017 1.49 1.017 2.436 0 .626-.16 1.202-.48 1.726a3.581 3.581 0 01-1.246 1.265 3.29 3.29 0 01-1.726.46zm14.871 0c-.946 0-1.758-.34-2.435-1.017-.678-.677-1.017-1.49-1.017-2.435 0-.946.34-1.758 1.017-2.436C46.307.34 47.12 0 48.065 0c.946 0 1.758.339 2.436 1.016.677.678 1.016 1.49 1.016 2.436 0 .626-.16 1.202-.48 1.726a3.58 3.58 0 01-1.246 1.265 3.289 3.289 0 01-1.726.46zm14.871 0c-.946 0-1.758-.34-2.435-1.017-.678-.677-1.017-1.49-1.017-2.435 0-.946.34-1.758 1.017-2.436C61.178.34 61.99 0 62.936 0c.946 0 1.758.339 2.436 1.016.677.678 1.016 1.49 1.016 2.436 0 .626-.16 1.202-.48 1.726a3.58 3.58 0 01-1.246 1.265 3.289 3.289 0 01-1.726.46zm14.871 0c-.946 0-1.758-.34-2.435-1.017-.678-.677-1.016-1.49-1.016-2.435 0-.946.338-1.758 1.016-2.436C76.049.34 76.862 0 77.807 0c.946 0 1.758.339 2.436 1.016.677.678 1.016 1.49 1.016 2.436 0 .626-.16 1.202-.48 1.726a3.58 3.58 0 01-1.246 1.265 3.289 3.289 0 01-1.726.46zm14.871 0c-.946 0-1.757-.34-2.435-1.017-.677-.677-1.016-1.49-1.016-2.435 0-.946.338-1.758 1.016-2.436C90.921.34 91.733 0 92.678 0c.946 0 1.758.339 2.436 1.016.677.678 1.016 1.49 1.016 2.436 0 .626-.16 1.202-.48 1.726a3.58 3.58 0 01-1.246 1.265 3.289 3.289 0 01-1.726.46zm14.871 0c-.946 0-1.757-.34-2.435-1.017-.677-.677-1.016-1.49-1.016-2.435 0-.946.339-1.758 1.016-2.436C105.792.34 106.603 0 107.549 0s1.758.339 2.436 1.016c.677.678 1.016 1.49 1.016 2.436 0 .626-.16 1.202-.479 1.726a3.585 3.585 0 01-1.247 1.265 3.287 3.287 0 01-1.726.46zm14.872 0c-.946 0-1.758-.34-2.436-1.017-.677-.677-1.016-1.49-1.016-2.435 0-.946.339-1.758 1.016-2.436C120.663.34 121.475 0 122.421 0s1.757.339 2.435 1.016c.677.678 1.016 1.49 1.016 2.436 0 .626-.16 1.202-.479 1.726a3.577 3.577 0 01-1.247 1.265 3.286 3.286 0 01-1.725.46zm14.871 0c-.946 0-1.758-.34-2.436-1.017-.677-.677-1.016-1.49-1.016-2.435 0-.946.339-1.758 1.016-2.436C135.534.34 136.346 0 137.292 0s1.757.339 2.435 1.016c.678.678 1.016 1.49 1.016 2.436 0 .626-.159 1.202-.479 1.726a3.583 3.583 0 01-1.246 1.265 3.292 3.292 0 01-1.726.46zm14.871 0c-.946 0-1.758-.34-2.436-1.017-.677-.677-1.016-1.49-1.016-2.435 0-.946.339-1.758 1.016-2.436C150.405.34 151.217 0 152.163 0s1.758.339 2.435 1.016c.678.678 1.016 1.49 1.016 2.436 0 .626-.159 1.202-.479 1.726a3.583 3.583 0 01-1.246 1.265 3.292 3.292 0 01-1.726.46zm14.871 0c-.946 0-1.758-.34-2.436-1.017-.677-.677-1.016-1.49-1.016-2.435 0-.946.339-1.758 1.016-2.436C165.276.34 166.088 0 167.034 0s1.758.339 2.435 1.016c.678.678 1.017 1.49 1.017 2.436a3.25 3.25 0 01-.48 1.726 3.583 3.583 0 01-1.246 1.265 3.292 3.292 0 01-1.726.46zm14.871 0c-.946 0-1.758-.34-2.435-1.017-.678-.677-1.017-1.49-1.017-2.435 0-.946.339-1.758 1.017-2.436C180.147.34 180.959 0 181.905 0s1.758.339 2.435 1.016c.678.678 1.017 1.49 1.017 2.436a3.25 3.25 0 01-.48 1.726 3.583 3.583 0 01-1.246 1.265 3.292 3.292 0 01-1.726.46zm14.871 0c-.946 0-1.758-.34-2.435-1.017-.678-.677-1.017-1.49-1.017-2.435 0-.946.339-1.758 1.017-2.436C195.018.34 195.83 0 196.776 0s1.758.339 2.435 1.016c.678.678 1.017 1.49 1.017 2.436a3.25 3.25 0 01-.48 1.726 3.574 3.574 0 01-1.246 1.265 3.29 3.29 0 01-1.726.46zm14.871 0c-.946 0-1.758-.34-2.435-1.017-.678-.677-1.017-1.49-1.017-2.435 0-.946.339-1.758 1.017-2.436C209.889.34 210.701 0 211.647 0s1.758.339 2.435 1.016c.678.678 1.017 1.49 1.017 2.436a3.25 3.25 0 01-.48 1.726 3.574 3.574 0 01-1.246 1.265 3.29 3.29 0 01-1.726.46zm14.871 0c-.946 0-1.758-.34-2.435-1.017-.678-.677-1.016-1.49-1.016-2.435 0-.946.338-1.758 1.016-2.436C224.76.34 225.572 0 226.518 0s1.758.339 2.436 1.016c.677.678 1.016 1.49 1.016 2.436 0 .626-.16 1.202-.479 1.726a3.585 3.585 0 01-1.247 1.265 3.29 3.29 0 01-1.726.46zm14.871 0c-.946 0-1.757-.34-2.435-1.017-.678-.677-1.016-1.49-1.016-2.435 0-.946.338-1.758 1.016-2.436C239.632.34 240.443 0 241.389 0s1.758.339 2.436 1.016c.677.678 1.016 1.49 1.016 2.436 0 .626-.16 1.202-.479 1.726a3.585 3.585 0 01-1.247 1.265 3.287 3.287 0 01-1.726.46zm14.871 0c-.946 0-1.757-.34-2.435-1.017-.678-.677-1.016-1.49-1.016-2.435 0-.946.338-1.758 1.016-2.436C254.503.34 255.314 0 256.26 0s1.758.339 2.436 1.016c.677.678 1.016 1.49 1.016 2.436 0 .626-.16 1.202-.479 1.726a3.585 3.585 0 01-1.247 1.265 3.287 3.287 0 01-1.726.46zm14.872 0c-.947 0-1.758-.34-2.436-1.017-.677-.677-1.016-1.49-1.016-2.435 0-.946.339-1.758 1.016-2.436C269.374.34 270.185 0 271.132 0c.946 0 1.757.339 2.435 1.016.677.678 1.016 1.49 1.016 2.436 0 .626-.16 1.202-.479 1.726a3.577 3.577 0 01-1.247 1.265 3.286 3.286 0 01-1.725.46zm14.871 0c-.946 0-1.758-.34-2.436-1.017-.677-.677-1.016-1.49-1.016-2.435 0-.946.339-1.758 1.016-2.436C284.245.34 285.057 0 286.003 0s1.757.339 2.435 1.016c.678.678 1.016 1.49 1.016 2.436 0 .626-.159 1.202-.479 1.726a3.577 3.577 0 01-1.247 1.265 3.286 3.286 0 01-1.725.46zm14.871 0c-.946 0-1.758-.34-2.436-1.017-.677-.677-1.016-1.49-1.016-2.435 0-.946.339-1.758 1.016-2.436C299.116.34 299.928 0 300.874 0s1.758.339 2.435 1.016c.678.678 1.016 1.49 1.016 2.436 0 .626-.159 1.202-.479 1.726a3.583 3.583 0 01-1.246 1.265 3.292 3.292 0 01-1.726.46zm14.871 0c-.946 0-1.758-.34-2.436-1.017-.677-.677-1.016-1.49-1.016-2.435 0-.946.339-1.758 1.016-2.436C313.987.34 314.799 0 315.745 0s1.758.339 2.435 1.016c.678.678 1.016 1.49 1.016 2.436 0 .626-.159 1.202-.479 1.726a3.583 3.583 0 01-1.246 1.265 3.292 3.292 0 01-1.726.46zm14.871 0c-.946 0-1.758-.34-2.435-1.017-.678-.677-1.017-1.49-1.017-2.435 0-.946.339-1.758 1.017-2.436C328.858.34 329.67 0 330.616 0s1.758.339 2.435 1.016c.678.678 1.017 1.49 1.017 2.436a3.25 3.25 0 01-.48 1.726 3.583 3.583 0 01-1.246 1.265 3.292 3.292 0 01-1.726.46zm14.871 0c-.946 0-1.758-.34-2.435-1.017-.678-.677-1.017-1.49-1.017-2.435 0-.946.339-1.758 1.017-2.436C343.729.34 344.541 0 345.487 0s1.758.339 2.435 1.016c.678.678 1.017 1.49 1.017 2.436a3.25 3.25 0 01-.48 1.726 3.583 3.583 0 01-1.246 1.265 3.292 3.292 0 01-1.726.46zm14.871 0c-.946 0-1.758-.34-2.435-1.017-.678-.677-1.017-1.49-1.017-2.435 0-.946.339-1.758 1.017-2.436C358.6.34 359.412 0 360.358 0s1.758.339 2.435 1.016c.678.678 1.017 1.49 1.017 2.436a3.25 3.25 0 01-.48 1.726 3.574 3.574 0 01-1.246 1.265 3.29 3.29 0 01-1.726.46zm14.871 0c-.946 0-1.758-.34-2.435-1.017-.678-.677-1.017-1.49-1.017-2.435 0-.946.339-1.758 1.017-2.436C373.471.34 374.283 0 375.229 0s1.758.339 2.436 1.016c.677.678 1.016 1.49 1.016 2.436a3.25 3.25 0 01-.48 1.726 3.574 3.574 0 01-1.246 1.265 3.29 3.29 0 01-1.726.46zm14.871 0c-.946 0-1.758-.34-2.435-1.017-.678-.677-1.016-1.49-1.016-2.435 0-.946.338-1.758 1.016-2.436C388.342.34 389.154 0 390.1 0s1.758.339 2.436 1.016c.677.678 1.016 1.49 1.016 2.436 0 .626-.16 1.202-.479 1.726a3.585 3.585 0 01-1.247 1.265 3.29 3.29 0 01-1.726.46zm14.871 0c-.946 0-1.757-.34-2.435-1.017-.678-.677-1.016-1.49-1.016-2.435 0-.946.338-1.758 1.016-2.436C403.214.34 404.025 0 404.971 0s1.758.339 2.436 1.016c.677.678 1.016 1.49 1.016 2.436 0 .626-.16 1.202-.479 1.726a3.585 3.585 0 01-1.247 1.265 3.287 3.287 0 01-1.726.46zm14.871 0c-.946 0-1.757-.34-2.435-1.017-.677-.677-1.016-1.49-1.016-2.435 0-.946.339-1.758 1.016-2.436C418.085.34 418.896 0 419.842 0s1.758.339 2.436 1.016c.677.678 1.016 1.49 1.016 2.436 0 .626-.16 1.202-.479 1.726a3.585 3.585 0 01-1.247 1.265 3.287 3.287 0 01-1.726.46z" fill="#FCA5A5"/></svg>