<svg width="48" height="48" fill="none" xmlns="http://www.w3.org/2000/svg"><path d="M47.508 25.308a16.621 16.621 0 01-1.526 2.264c-6.112 6.14-12.266 12.232-18.378 18.38-1.796 1.807-3.08.997-4.516-.505-1.436-1.503-2.775-2.659-.694-4.666 6.099-6.03 12.072-12.157 18.246-18.145.694-.692 2.394-1.343 3.018-.976 1.457.837 2.54 2.34 3.85 3.648zM4.863 27.046c-1.263-1.274-2.775-2.423-3.69-3.94-.348-.574.436-2.243 1.15-2.976 5.69-5.822 11.483-11.534 17.24-17.308 2.526-2.478 5.724-1.786 6.834 1.634a2.984 2.984 0 01-.694 2.492c-6.243 6.356-12.57 12.628-18.897 18.9-.61.457-1.26.858-1.943 1.198zM14.277 20.074l5.772-5.697 13.328 13.658-5.814 5.213-13.286-13.174zM17.559 2.636L2.94 17.65c-3.746-2.45-3.822-3.461-.749-6.431s5.987-5.905 8.95-8.889c3.156-3.164 3.51-3.15 6.417.305zM30.171 45.024L45.607 30.01c.38.575.812 1.115 1.29 1.613 1.388 1.301 1.513 2.534.105 3.918-3.83 3.787-7.583 7.615-11.447 11.388-1.866 1.814-2.824 1.42-5.384-1.904zM39.024 45.073l6.32-5.87c1.679 1.287 1.346 2.644-.042 4.153-3.392 3.579-3.899 3.773-6.278 1.717zM2.72 8.852C.963 7.24 1.331 5.993 2.767 4.63 6.458 1.036 6.556.995 8.713 2.906L2.72 8.852z" fill="#134E4A"/></svg>