<svg width="50" height="50" fill="none" xmlns="http://www.w3.org/2000/svg"><path d="M44.852 22.956c.228-.017.338.017.372.037l.003.003c.697.4 1.32.969 1.952 1.629.522.545 1.1 1.205 1.684 1.811a16.802 16.802 0 01-1.343 1.954C41.175 34.765 34.75 41.13 28.4 47.514c-.866.872-1.502 1.014-2.028.895-.594-.135-1.21-.63-1.96-1.414-.385-.403-.735-.752-1.028-1.102-.292-.347-.494-.655-.597-.95a1.266 1.266 0 010-.877c.116-.332.378-.735.888-1.227l.004-.004c6.363-6.291 12.571-12.66 19.003-18.897l.004-.005c.291-.29.84-.607 1.41-.804.28-.096.542-.156.756-.173zM20.73 3.297c1.224-1.202 2.547-1.578 3.648-1.323 1.089.253 2.091 1.154 2.632 2.79a2.608 2.608 0 01-.609 2.14c-6.486 6.602-13.06 13.118-19.635 19.637-.51.38-1.05.72-1.612 1.02a45.478 45.478 0 00-.77-.733c-.349-.326-.693-.644-1.027-.97-.666-.652-1.263-1.311-1.708-2.047 0 0-.035-.078-.003-.3a3.2 3.2 0 01.222-.737c.234-.562.593-1.13.911-1.457v-.001c5.921-6.06 11.95-12.002 17.95-18.019zM34.045 29.179l-5.316 4.768L15.583 20.91l5.294-5.226 13.168 13.494zM15.023.501c.268.013.594.157 1.076.587.416.371.898.908 1.515 1.634L2.996 17.739c-.794-.533-1.386-.983-1.797-1.394-.467-.468-.656-.836-.692-1.16-.036-.322.066-.705.415-1.228.35-.526.913-1.141 1.709-1.91C5.836 8.949 8.875 5.888 11.96 2.78c.826-.828 1.44-1.418 1.95-1.799.511-.38.845-.494 1.113-.481zM47.434 32.026c.324.443.677.863 1.058 1.26l.009.009.009.009c.681.64.967 1.184.989 1.666.02.471-.207 1.023-.889 1.694v.001c-4 3.954-7.896 7.928-11.922 11.86-.471.458-.845.735-1.168.872-.299.126-.559.135-.846.03-.313-.113-.687-.37-1.166-.846-.408-.406-.866-.947-1.409-1.637l15.335-14.918zM47.247 41.503c.535.501.692.955.663 1.375-.036.542-.385 1.18-1.084 1.94-.884.933-1.564 1.63-2.129 2.121-.57.496-.976.744-1.308.838-.3.084-.582.054-.947-.126-.295-.146-.627-.381-1.04-.719l5.845-5.429zM6.72 2.255c.236-.07.44-.045.736.122.246.139.524.358.888.672L2.833 8.515c-.587-.632-.755-1.133-.723-1.552.04-.519.39-1.088 1.117-1.778l.005-.005c.965-.94 1.68-1.63 2.25-2.117.578-.494.953-.725 1.237-.808z" stroke="#134E4A"/></svg>